%TF.GenerationSoftware,KiCad,Pcbnew,10.0.5*%
%TF.CreationDate,2026-09-04T20:15:20+02:00*%
%TF.ProjectId,ledcube,6c656463-7562-4652-9e6b-696361645f70,rev?*%
%TF.SameCoordinates,Original*%
%TF.FileFunction,Copper,L2,Bot*%
%TF.FilePolarity,Positive*%
%FSLAX46Y46*%
G04 Gerber Fmt 4.6, Leading zero omitted, Abs format (unit mm)*
G04 Created by KiCad (PCBNEW 10.0.5) date 2026-09-04 20:15:20*
%MOMM*%
%LPD*%
G01*
G04 APERTURE LIST*
G04 Aperture macros list*
%AMRoundRect*
0 Rectangle with rounded corners*
0 $1 Rounding radius*
0 $2 $3 $4 $5 $6 $7 $8 $9 X,Y pos of 4 corners*
0 Add a 4 corners polygon primitive as box body*
4,1,4,$2,$3,$4,$5,$6,$7,$8,$9,$2,$3,0*
0 Add four circle primitives for the rounded corners*
1,1,$1+$1,$2,$3*
1,1,$1+$1,$4,$5*
1,1,$1+$1,$6,$7*
1,1,$1+$1,$8,$9*
0 Add four rect primitives between the rounded corners*
20,1,$1+$1,$2,$3,$4,$5,0*
20,1,$1+$1,$4,$5,$6,$7,0*
20,1,$1+$1,$6,$7,$8,$9,0*
20,1,$1+$1,$8,$9,$2,$3,0*%
G04 Aperture macros list end*
%TA.AperFunction,SMDPad,CuDef*%
%ADD10RoundRect,0.200000X-0.275000X0.200000X-0.275000X-0.200000X0.275000X-0.200000X0.275000X0.200000X0*%
%TD*%
%TA.AperFunction,SMDPad,CuDef*%
%ADD11RoundRect,0.243750X-0.456250X0.243750X-0.456250X-0.243750X0.456250X-0.243750X0.456250X0.243750X0*%
%TD*%
%TA.AperFunction,ComponentPad*%
%ADD12O,1.000000X1.700000*%
%TD*%
%TA.AperFunction,ViaPad*%
%ADD13C,0.600000*%
%TD*%
%TA.AperFunction,Conductor*%
%ADD14C,0.200000*%
%TD*%
G04 APERTURE END LIST*
D10*
%TO.P,R31,1*%
%TO.N,Net-(D10-A)*%
X121005000Y-89175000D03*
%TO.P,R31,2*%
%TO.N,Net-(D1-AB)*%
X121005000Y-90825000D03*
%TD*%
D11*
%TO.P,D10,1,K_1*%
%TO.N,Net-(D10-K)*%
X121000000Y-84562500D03*
%TO.P,D10,2,A_2*%
%TO.N,Net-(D10-A)*%
X121000000Y-86437500D03*
%TD*%
D12*
%TO.P,P1,SH*%
%TO.N,N/C*%
X100926000Y-96500000D03*
X100926000Y-100300000D03*
X109566000Y-96500000D03*
X109566000Y-100300000D03*
%TD*%
D13*
%TO.N,Net-(D10-K)*%
X122000000Y-68000000D03*
%TO.N,Net-(D1-AB)*%
X118300000Y-93000000D03*
X111250000Y-60350000D03*
X116200000Y-68200000D03*
%TO.N,Net-(Blue1-Pad2)*%
X89500000Y-99325000D03*
%TO.N,Net-(R29-Pad1)*%
X92500000Y-99325000D03*
%TO.N,Net-(Green1-Pad2)*%
X95500000Y-99325000D03*
X116750000Y-61500000D03*
%TO.N,Net-(R29-Pad1)*%
X89750000Y-61000000D03*
%TO.N,Net-(Blue1-Pad2)*%
X117150000Y-98500000D03*
%TO.N,Net-(Q1-C)*%
X84175000Y-88510000D03*
%TO.N,Net-(Q2-C)*%
X84175000Y-86000000D03*
%TO.N,Net-(Q3-C)*%
X84175000Y-83490000D03*
%TO.N,Net-(Q1-C)*%
X84175000Y-81010000D03*
%TO.N,Net-(Q2-C)*%
X84175000Y-78500000D03*
%TO.N,Net-(Q3-C)*%
X84175000Y-75990000D03*
%TO.N,Net-(Q1-C)*%
X84175000Y-73000000D03*
%TO.N,Net-(Q2-C)*%
X84175000Y-70420000D03*
%TO.N,Net-(Q3-C)*%
X84175000Y-67910000D03*
X96675000Y-67490000D03*
%TO.N,Net-(Q2-C)*%
X96675000Y-70000000D03*
%TO.N,Net-(Q1-C)*%
X96675000Y-72510000D03*
%TO.N,Net-(Q3-C)*%
X96850000Y-75490000D03*
%TO.N,Net-(Q2-C)*%
X96850000Y-78000000D03*
%TO.N,Net-(Q1-C)*%
X96850000Y-80510000D03*
%TO.N,Net-(Q3-C)*%
X96675000Y-82990000D03*
%TO.N,Net-(Q2-C)*%
X96675000Y-85500000D03*
%TO.N,Net-(Q1-C)*%
X96675000Y-88010000D03*
X107675000Y-88010000D03*
%TO.N,Net-(Q2-C)*%
X107675000Y-85500000D03*
%TO.N,Net-(Q3-C)*%
X107675000Y-82990000D03*
%TO.N,Net-(Q1-C)*%
X107850000Y-80510000D03*
%TO.N,Net-(Q2-C)*%
X107850000Y-78000000D03*
%TO.N,Net-(Q3-C)*%
X107850000Y-75490000D03*
%TO.N,Net-(Q1-C)*%
X107675000Y-72510000D03*
%TO.N,Net-(Q2-C)*%
X107675000Y-70000000D03*
%TO.N,Net-(Q3-C)*%
X107675000Y-67490000D03*
%TD*%
%TO.N,Net-(D1-AB)*%
D14*
X120475000Y-90825000D02*
X118300000Y-93000000D01*
X121005000Y-90825000D02*
X120475000Y-90825000D01*
%TO.N,Net-(D10-A)*%
X121000000Y-89170000D02*
X121005000Y-89175000D01*
X121000000Y-86437500D02*
X121000000Y-89170000D01*
%TO.N,Net-(D10-K)*%
X117900000Y-81462500D02*
X121000000Y-84562500D01*
X122000000Y-73000000D02*
X117900000Y-77100000D01*
X122000000Y-68000000D02*
X122000000Y-73000000D01*
X117900000Y-77100000D02*
X117900000Y-81462500D01*
%TO.N,Net-(D1-AB)*%
X111250000Y-63250000D02*
X116200000Y-68200000D01*
X111250000Y-60350000D02*
X111250000Y-63250000D01*
%TO.N,Net-(Green1-Pad2)*%
X116750000Y-64250000D02*
X116750000Y-61500000D01*
X87000000Y-99000000D02*
X96000000Y-90000000D01*
X117500000Y-90000000D02*
X117500000Y-65000000D01*
X87000000Y-100500000D02*
X87000000Y-99000000D01*
X96000000Y-90000000D02*
X117500000Y-90000000D01*
X94325000Y-100500000D02*
X87000000Y-100500000D01*
X117500000Y-65000000D02*
X116750000Y-64250000D01*
X95500000Y-99325000D02*
X94325000Y-100500000D01*
%TO.N,Net-(R29-Pad1)*%
X93250000Y-57500000D02*
X89750000Y-61000000D01*
X121500000Y-57500000D02*
X93250000Y-57500000D01*
X124000000Y-60000000D02*
X121500000Y-57500000D01*
X115875000Y-99100000D02*
X117398529Y-99100000D01*
X117398529Y-99100000D02*
X124000000Y-92498529D01*
X115500000Y-98725000D02*
X115875000Y-99100000D01*
X93100000Y-98725000D02*
X115500000Y-98725000D01*
X124000000Y-92498529D02*
X124000000Y-60000000D01*
X92500000Y-99325000D02*
X93100000Y-98725000D01*
%TO.N,Net-(Blue1-Pad2)*%
X110500000Y-93000000D02*
X95825000Y-93000000D01*
X116000000Y-98500000D02*
X110500000Y-93000000D01*
X95825000Y-93000000D02*
X89500000Y-99325000D01*
X117150000Y-98500000D02*
X116000000Y-98500000D01*
%TO.N,Net-(Q1-C)*%
X109510000Y-72510000D02*
X107675000Y-72510000D01*
X114000000Y-77000000D02*
X109510000Y-72510000D01*
X114000000Y-82000000D02*
X114000000Y-77000000D01*
X112500000Y-83500000D02*
X114000000Y-82000000D01*
X81500000Y-84500000D02*
X112500000Y-84500000D01*
X81000000Y-85000000D02*
X81500000Y-84500000D01*
X81000000Y-85000000D02*
X81000000Y-81500000D01*
X112500000Y-84500000D02*
X112500000Y-83500000D01*
X81000000Y-81500000D02*
X81490000Y-81010000D01*
X81490000Y-81010000D02*
X84175000Y-81010000D01*
X81000000Y-85335000D02*
X81000000Y-85000000D01*
X84175000Y-88510000D02*
X81000000Y-85335000D01*
%TO.N,Net-(Q2-C)*%
X116000000Y-84000000D02*
X114500000Y-85500000D01*
X116000000Y-75500000D02*
X116000000Y-84000000D01*
X108500000Y-68000000D02*
X108500000Y-65500000D01*
X108500000Y-68000000D02*
X116000000Y-75500000D01*
X114500000Y-85500000D02*
X107675000Y-85500000D01*
X108500000Y-69175000D02*
X108500000Y-68000000D01*
X81000000Y-70000000D02*
X81000000Y-78500000D01*
X85500000Y-65500000D02*
X81000000Y-70000000D01*
X81000000Y-78500000D02*
X84175000Y-78500000D01*
X108500000Y-65500000D02*
X85500000Y-65500000D01*
X107675000Y-70000000D02*
X108500000Y-69175000D01*
%TO.N,Net-(Q3-C)*%
X112000000Y-81500000D02*
X110510000Y-82990000D01*
X107850000Y-75490000D02*
X112000000Y-79640000D01*
X112000000Y-79640000D02*
X112000000Y-81500000D01*
X110510000Y-82990000D02*
X107675000Y-82990000D01*
X83490000Y-75990000D02*
X84175000Y-75990000D01*
X82000000Y-70085000D02*
X82000000Y-74500000D01*
X82000000Y-74500000D02*
X83490000Y-75990000D01*
X84175000Y-67910000D02*
X82000000Y-70085000D01*
%TO.N,Net-(Q1-C)*%
X107675000Y-88010000D02*
X96675000Y-88010000D01*
X84175000Y-88510000D02*
X96175000Y-88510000D01*
X96175000Y-88510000D02*
X96675000Y-88010000D01*
%TO.N,Net-(Q2-C)*%
X96000000Y-85500000D02*
X95500000Y-86000000D01*
X96675000Y-85500000D02*
X96000000Y-85500000D01*
X95500000Y-86000000D02*
X84175000Y-86000000D01*
X107675000Y-85500000D02*
X96675000Y-85500000D01*
%TO.N,Net-(Q3-C)*%
X96675000Y-82990000D02*
X107675000Y-82990000D01*
X84175000Y-83490000D02*
X96175000Y-83490000D01*
X96175000Y-83490000D02*
X96675000Y-82990000D01*
%TO.N,Net-(Q1-C)*%
X107850000Y-80510000D02*
X96850000Y-80510000D01*
X96350000Y-81010000D02*
X96850000Y-80510000D01*
X84175000Y-81010000D02*
X96350000Y-81010000D01*
%TO.N,Net-(Q2-C)*%
X84675000Y-78000000D02*
X84175000Y-78500000D01*
X107850000Y-78000000D02*
X84675000Y-78000000D01*
%TO.N,Net-(Q3-C)*%
X96850000Y-75490000D02*
X107850000Y-75490000D01*
X96350000Y-75990000D02*
X96850000Y-75490000D01*
X84175000Y-75990000D02*
X96350000Y-75990000D01*
%TO.N,Net-(Q1-C)*%
X107675000Y-72510000D02*
X96675000Y-72510000D01*
X96185000Y-73000000D02*
X96675000Y-72510000D01*
X84175000Y-73000000D02*
X96185000Y-73000000D01*
%TO.N,Net-(Q2-C)*%
X96675000Y-70000000D02*
X107675000Y-70000000D01*
X96255000Y-70420000D02*
X96675000Y-70000000D01*
X84175000Y-70420000D02*
X96255000Y-70420000D01*
%TO.N,Net-(Q3-C)*%
X107675000Y-67490000D02*
X96675000Y-67490000D01*
X96255000Y-67910000D02*
X96675000Y-67490000D01*
X84175000Y-67910000D02*
X96255000Y-67910000D01*
%TD*%
M02*
