M48
; DRILL file KiCad 10.0.5 date 2026-08-08T18:07:36
; FORMAT={-:-/ absolute / metric / decimal}
; #@! TF.CreationDate,2026-08-08T18:07:36+02:00
; #@! TF.GenerationSoftware,Kicad,Pcbnew,10.0.5
; #@! TF.FileFunction,Plated,1,2,PTH
FMAT,2
METRIC
; #@! TA.AperFunction,Plated,PTH,ViaDrill
T1C0.300
; #@! TA.AperFunction,Plated,PTH,ComponentDrill
T2C0.500
; #@! TA.AperFunction,Plated,PTH,ComponentDrill
T3C0.710
; #@! TA.AperFunction,Plated,PTH,ComponentDrill
T4C0.800
; #@! TA.AperFunction,Plated,PTH,ComponentDrill
T5C1.000
%
G90
G05
T1
X84.5Y-81.0
X84.675Y-70.5
X84.675Y-72.5
X84.675Y-74.5
X84.675Y-77.0
X84.675Y-79.0
X84.675Y-83.5
X84.675Y-85.5
X84.85Y-87.5
X96.0Y-74.5
X96.175Y-70.5
X96.175Y-72.5
X96.175Y-77.0
X96.175Y-79.0
X96.175Y-81.0
X96.175Y-84.0
X96.175Y-86.0
X96.175Y-87.5
X103.75Y-96.32
X104.98Y-96.32
X107.675Y-70.5
X107.675Y-74.0
X107.675Y-77.0
X107.675Y-79.0
X107.675Y-81.0
X107.675Y-83.5
X107.675Y-86.0
X107.675Y-88.0
X107.85Y-72.5
X108.02Y-96.32
X109.25Y-96.32
T3
X82.45Y-90.875
X87.55Y-92.475
T4
X91.195Y-65.513
X92.46Y-58.77
X95.0Y-61.31
X97.54Y-58.77
X98.815Y-65.513
X106.195Y-65.513
X107.46Y-58.77
X110.0Y-61.31
X112.54Y-58.77
X113.815Y-65.513
X114.195Y-91.513
X115.46Y-95.77
X118.0Y-98.31
X120.54Y-95.77
X121.815Y-91.513
T5
X93.585Y-92.295
X96.125Y-92.295
X98.665Y-92.295
X101.205Y-92.295
T2
G00X102.18Y-96.15
M15
G01X102.18Y-96.85
M16
G05
G00X102.18Y-99.95
M15
G01X102.18Y-100.65
M16
G05
G00X110.82Y-96.15
M15
G01X110.82Y-96.85
M16
G05
G00X110.82Y-99.95
M15
G01X110.82Y-100.65
M16
G05
M30
