%TF.GenerationSoftware,KiCad,Pcbnew,10.0.5*%
%TF.CreationDate,2026-07-23T19:21:15+02:00*%
%TF.ProjectId,ledcube,6c656463-7562-4652-9e6b-696361645f70,rev?*%
%TF.SameCoordinates,Original*%
%TF.FileFunction,Soldermask,Top*%
%TF.FilePolarity,Negative*%
%FSLAX46Y46*%
G04 Gerber Fmt 4.6, Leading zero omitted, Abs format (unit mm)*
G04 Created by KiCad (PCBNEW 10.0.5) date 2026-07-23 19:21:15*
%MOMM*%
%LPD*%
G01*
G04 APERTURE LIST*
G04 Aperture macros list*
%AMRoundRect*
0 Rectangle with rounded corners*
0 $1 Rounding radius*
0 $2 $3 $4 $5 $6 $7 $8 $9 X,Y pos of 4 corners*
0 Add a 4 corners polygon primitive as box body*
4,1,4,$2,$3,$4,$5,$6,$7,$8,$9,$2,$3,0*
0 Add four circle primitives for the rounded corners*
1,1,$1+$1,$2,$3*
1,1,$1+$1,$4,$5*
1,1,$1+$1,$6,$7*
1,1,$1+$1,$8,$9*
0 Add four rect primitives between the rounded corners*
20,1,$1+$1,$2,$3,$4,$5,0*
20,1,$1+$1,$4,$5,$6,$7,0*
20,1,$1+$1,$6,$7,$8,$9,0*
20,1,$1+$1,$8,$9,$2,$3,0*%
G04 Aperture macros list end*
%ADD10RoundRect,0.200000X0.200000X0.275000X-0.200000X0.275000X-0.200000X-0.275000X0.200000X-0.275000X0*%
%ADD11C,1.440000*%
%ADD12C,2.200000*%
%ADD13RoundRect,0.350000X-0.650000X-0.350000X0.650000X-0.350000X0.650000X0.350000X-0.650000X0.350000X0*%
%ADD14RoundRect,0.250000X-0.750000X-0.250000X0.750000X-0.250000X0.750000X0.250000X-0.750000X0.250000X0*%
%ADD15RoundRect,0.175000X-0.175000X-0.625000X0.175000X-0.625000X0.175000X0.625000X-0.175000X0.625000X0*%
%ADD16RoundRect,0.200000X-0.200000X-0.600000X0.200000X-0.600000X0.200000X0.600000X-0.200000X0.600000X0*%
%ADD17RoundRect,0.225000X-0.225000X-0.575000X0.225000X-0.575000X0.225000X0.575000X-0.225000X0.575000X0*%
%ADD18O,1.000000X1.700000*%
%ADD19RoundRect,0.250000X-0.550000X-0.550000X0.550000X-0.550000X0.550000X0.550000X-0.550000X0.550000X0*%
%ADD20C,1.600000*%
%ADD21C,1.270000*%
G04 APERTURE END LIST*
D10*
%TO.C,R23*%
X109325000Y-79000000D03*
X107675000Y-79000000D03*
%TD*%
%TO.C,R7*%
X86500000Y-87500000D03*
X84850000Y-87500000D03*
%TD*%
D11*
%TO.C,Blue1*%
X97540000Y-58770000D03*
X95000000Y-61310000D03*
X92460000Y-58770000D03*
%TD*%
D12*
%TO.C,REF\u002A\u002A*%
X83900000Y-97325000D03*
%TD*%
D13*
%TO.C,D2*%
X88800000Y-77200000D03*
D14*
X88800000Y-79000000D03*
D13*
X88800000Y-80800000D03*
X93200000Y-80800000D03*
D14*
X93200000Y-79000000D03*
D13*
X93200000Y-77200000D03*
%TD*%
%TO.C,D8*%
X111800000Y-77200000D03*
D14*
X111800000Y-79000000D03*
D13*
X111800000Y-80800000D03*
X116200000Y-80800000D03*
D14*
X116200000Y-79000000D03*
D13*
X116200000Y-77200000D03*
%TD*%
D10*
%TO.C,R10*%
X97825000Y-74500000D03*
X96175000Y-74500000D03*
%TD*%
D15*
%TO.C,P1*%
X104746000Y-96320000D03*
D16*
X106766000Y-96320000D03*
D17*
X107996000Y-96320000D03*
D15*
X105746000Y-96320000D03*
D16*
X103726000Y-96320000D03*
D17*
X102496000Y-96320000D03*
D18*
X100926000Y-96500000D03*
X100926000Y-100300000D03*
X109566000Y-96500000D03*
X109566000Y-100300000D03*
%TD*%
D13*
%TO.C,D7*%
X111800000Y-70580000D03*
D14*
X111800000Y-72380000D03*
D13*
X111800000Y-74180000D03*
X116200000Y-74180000D03*
D14*
X116200000Y-72380000D03*
D13*
X116200000Y-70580000D03*
%TD*%
D10*
%TO.C,R26*%
X109325000Y-86000000D03*
X107675000Y-86000000D03*
%TD*%
%TO.C,R5*%
X86325000Y-79000000D03*
X84675000Y-79000000D03*
%TD*%
%TO.C,R2*%
X86325000Y-72500000D03*
X84675000Y-72500000D03*
%TD*%
%TO.C,R6*%
X86325000Y-77000000D03*
X84675000Y-77000000D03*
%TD*%
%TO.C,R14*%
X97825000Y-79000000D03*
X96175000Y-79000000D03*
%TD*%
%TO.C,R20*%
X109500000Y-72500000D03*
X107850000Y-72500000D03*
%TD*%
D19*
%TO.C,SW2*%
X114195000Y-91512500D03*
D20*
X121815000Y-91512500D03*
%TD*%
D10*
%TO.C,R17*%
X97825000Y-86000000D03*
X96175000Y-86000000D03*
%TD*%
%TO.C,R21*%
X109325000Y-70500000D03*
X107675000Y-70500000D03*
%TD*%
%TO.C,R4*%
X86150000Y-81000000D03*
X84500000Y-81000000D03*
%TD*%
%TO.C,R18*%
X97825000Y-84000000D03*
X96175000Y-84000000D03*
%TD*%
%TO.C,R1*%
X86325000Y-74500000D03*
X84675000Y-74500000D03*
%TD*%
D21*
%TO.C,F1*%
X82450000Y-90875000D03*
X87550000Y-92475000D03*
%TD*%
D10*
%TO.C,R27*%
X109325000Y-83500000D03*
X107675000Y-83500000D03*
%TD*%
D13*
%TO.C,D6*%
X100300000Y-83820000D03*
D14*
X100300000Y-85620000D03*
D13*
X100300000Y-87420000D03*
X104700000Y-87420000D03*
D14*
X104700000Y-85620000D03*
D13*
X104700000Y-83820000D03*
%TD*%
%TO.C,D4*%
X100300000Y-70580000D03*
D14*
X100300000Y-72380000D03*
D13*
X100300000Y-74180000D03*
X104700000Y-74180000D03*
D14*
X104700000Y-72380000D03*
D13*
X104700000Y-70580000D03*
%TD*%
D10*
%TO.C,R25*%
X109325000Y-88000000D03*
X107675000Y-88000000D03*
%TD*%
D11*
%TO.C,Red1*%
X120540000Y-95770000D03*
X118000000Y-98310000D03*
X115460000Y-95770000D03*
%TD*%
D10*
%TO.C,R9*%
X86325000Y-83500000D03*
X84675000Y-83500000D03*
%TD*%
%TO.C,R12*%
X97825000Y-70500000D03*
X96175000Y-70500000D03*
%TD*%
%TO.C,R8*%
X86325000Y-85500000D03*
X84675000Y-85500000D03*
%TD*%
%TO.C,R13*%
X97825000Y-81000000D03*
X96175000Y-81000000D03*
%TD*%
%TO.C,R19*%
X109325000Y-74000000D03*
X107675000Y-74000000D03*
%TD*%
D12*
%TO.C,REF\u002A\u002A*%
X102400000Y-60325000D03*
%TD*%
D19*
%TO.C,SW1*%
X106195000Y-65512500D03*
D20*
X113815000Y-65512500D03*
%TD*%
D13*
%TO.C,D9*%
X111800000Y-83820000D03*
D14*
X111800000Y-85620000D03*
D13*
X111800000Y-87420000D03*
X116200000Y-87420000D03*
D14*
X116200000Y-85620000D03*
D13*
X116200000Y-83820000D03*
%TD*%
%TO.C,D5*%
X100300000Y-77200000D03*
D14*
X100300000Y-79000000D03*
D13*
X100300000Y-80800000D03*
X104700000Y-80800000D03*
D14*
X104700000Y-79000000D03*
D13*
X104700000Y-77200000D03*
%TD*%
D10*
%TO.C,R11*%
X97825000Y-72500000D03*
X96175000Y-72500000D03*
%TD*%
%TO.C,R22*%
X109325000Y-81000000D03*
X107675000Y-81000000D03*
%TD*%
D19*
%TO.C,SW3*%
X91195000Y-65512500D03*
D20*
X98815000Y-65512500D03*
%TD*%
D10*
%TO.C,R16*%
X97825000Y-87500000D03*
X96175000Y-87500000D03*
%TD*%
%TO.C,R3*%
X86325000Y-70500000D03*
X84675000Y-70500000D03*
%TD*%
D12*
%TO.C,REF\u002A\u002A*%
X120900000Y-78825000D03*
%TD*%
D10*
%TO.C,R15*%
X97825000Y-77000000D03*
X96175000Y-77000000D03*
%TD*%
D11*
%TO.C,Green1*%
X112540000Y-58770000D03*
X110000000Y-61310000D03*
X107460000Y-58770000D03*
%TD*%
D13*
%TO.C,D3*%
X88800000Y-83820000D03*
D14*
X88800000Y-85620000D03*
D13*
X88800000Y-87420000D03*
X93200000Y-87420000D03*
D14*
X93200000Y-85620000D03*
D13*
X93200000Y-83820000D03*
%TD*%
%TO.C,D1*%
X88800000Y-70580000D03*
D14*
X88800000Y-72380000D03*
D13*
X88800000Y-74180000D03*
X93200000Y-74180000D03*
D14*
X93200000Y-72380000D03*
D13*
X93200000Y-70580000D03*
%TD*%
D10*
%TO.C,R24*%
X109325000Y-77000000D03*
X107675000Y-77000000D03*
%TD*%
M02*
