%TF.GenerationSoftware,KiCad,Pcbnew,10.0.5*%
%TF.CreationDate,2026-08-08T18:07:30+02:00*%
%TF.ProjectId,ledcube,6c656463-7562-4652-9e6b-696361645f70,rev?*%
%TF.SameCoordinates,Original*%
%TF.FileFunction,Legend,Bot*%
%TF.FilePolarity,Positive*%
%FSLAX46Y46*%
G04 Gerber Fmt 4.6, Leading zero omitted, Abs format (unit mm)*
G04 Created by KiCad (PCBNEW 10.0.5) date 2026-08-08 18:07:30*
%MOMM*%
%LPD*%
G01*
G04 APERTURE LIST*
%ADD10C,0.000000*%
%ADD11C,0.150000*%
%ADD12C,0.120000*%
G04 APERTURE END LIST*
D10*
G36*
X92602500Y-86502500D02*
G01*
X95287500Y-86502500D01*
X95287500Y-87397500D01*
X96182500Y-87397500D01*
X96182500Y-88292500D01*
X94392500Y-88292500D01*
X94392500Y-87397500D01*
X93497500Y-87397500D01*
X93497500Y-88292500D01*
X91707500Y-88292500D01*
X91707500Y-89187500D01*
X90812500Y-89187500D01*
X90812500Y-88292500D01*
X90812500Y-87397500D01*
X90812500Y-86502500D01*
X90812500Y-85607500D01*
X92602500Y-85607500D01*
X92602500Y-86502500D01*
G37*
G36*
X94392500Y-89187500D02*
G01*
X93497500Y-89187500D01*
X93497500Y-88292500D01*
X94392500Y-88292500D01*
X94392500Y-89187500D01*
G37*
G36*
X97077500Y-89187500D02*
G01*
X96182500Y-89187500D01*
X96182500Y-88292500D01*
X97077500Y-88292500D01*
X97077500Y-89187500D01*
G37*
G36*
X98867500Y-89187500D02*
G01*
X97972500Y-89187500D01*
X97972500Y-88292500D01*
X98867500Y-88292500D01*
X98867500Y-89187500D01*
G37*
G36*
X103342500Y-86502500D02*
G01*
X105132500Y-86502500D01*
X105132500Y-87397500D01*
X103342500Y-87397500D01*
X103342500Y-88292500D01*
X103342500Y-89187500D01*
X101552500Y-89187500D01*
X101552500Y-88292500D01*
X102447500Y-88292500D01*
X102447500Y-87397500D01*
X102447500Y-86502500D01*
X102447500Y-85607500D01*
X103342500Y-85607500D01*
X103342500Y-86502500D01*
G37*
G36*
X106027500Y-88292500D02*
G01*
X106027500Y-89187500D01*
X104237500Y-89187500D01*
X104237500Y-88292500D01*
X105132500Y-88292500D01*
X105132500Y-87397500D01*
X106027500Y-87397500D01*
X106027500Y-88292500D01*
G37*
G36*
X111397500Y-87397500D02*
G01*
X108712500Y-87397500D01*
X108712500Y-84712500D01*
X111397500Y-84712500D01*
X111397500Y-87397500D01*
G37*
G36*
X113187500Y-88292500D02*
G01*
X113187500Y-89187500D01*
X106922500Y-89187500D01*
X106922500Y-88292500D01*
X106922500Y-83817500D01*
X107817500Y-83817500D01*
X107817500Y-88292500D01*
X112292500Y-88292500D01*
X112292500Y-83817500D01*
X107817500Y-83817500D01*
X106922500Y-83817500D01*
X106922500Y-82922500D01*
X113187500Y-82922500D01*
X113187500Y-83817500D01*
X113187500Y-88292500D01*
G37*
G36*
X97077500Y-83817500D02*
G01*
X96182500Y-83817500D01*
X96182500Y-82922500D01*
X97077500Y-82922500D01*
X97077500Y-83817500D01*
G37*
G36*
X98867500Y-83817500D02*
G01*
X101552500Y-83817500D01*
X101552500Y-82922500D01*
X100657500Y-82922500D01*
X100657500Y-82027500D01*
X99762500Y-82027500D01*
X99762500Y-81132500D01*
X99762500Y-80237500D01*
X100657500Y-80237500D01*
X100657500Y-81132500D01*
X102447500Y-81132500D01*
X102447500Y-82027500D01*
X102447500Y-82922500D01*
X103342500Y-82922500D01*
X103342500Y-82027500D01*
X103342500Y-81132500D01*
X104237500Y-81132500D01*
X104237500Y-80237500D01*
X105132500Y-80237500D01*
X105132500Y-81132500D01*
X105132500Y-82027500D01*
X106027500Y-82027500D01*
X106027500Y-82922500D01*
X105132500Y-82922500D01*
X105132500Y-83817500D01*
X104237500Y-83817500D01*
X104237500Y-82922500D01*
X103342500Y-82922500D01*
X103342500Y-83817500D01*
X103342500Y-84712500D01*
X102447500Y-84712500D01*
X102447500Y-83817500D01*
X101552500Y-83817500D01*
X101552500Y-84712500D01*
X100657500Y-84712500D01*
X100657500Y-85607500D01*
X100657500Y-86502500D01*
X99762500Y-86502500D01*
X99762500Y-85607500D01*
X97972500Y-85607500D01*
X97972500Y-86502500D01*
X98867500Y-86502500D01*
X98867500Y-87397500D01*
X97972500Y-87397500D01*
X97972500Y-88292500D01*
X97077500Y-88292500D01*
X97077500Y-87397500D01*
X97077500Y-86502500D01*
X96182500Y-86502500D01*
X96182500Y-85607500D01*
X94392500Y-85607500D01*
X94392500Y-84712500D01*
X94392500Y-82027500D01*
X95287500Y-82027500D01*
X95287500Y-84712500D01*
X97972500Y-84712500D01*
X97972500Y-83817500D01*
X97972500Y-82027500D01*
X95287500Y-82027500D01*
X94392500Y-82027500D01*
X94392500Y-81132500D01*
X95287500Y-81132500D01*
X95287500Y-80237500D01*
X97077500Y-80237500D01*
X97077500Y-79342500D01*
X97972500Y-79342500D01*
X97972500Y-80237500D01*
X98867500Y-80237500D01*
X98867500Y-81132500D01*
X98867500Y-82027500D01*
X98867500Y-83817500D01*
G37*
G36*
X106027500Y-86502500D02*
G01*
X105132500Y-86502500D01*
X105132500Y-84712500D01*
X106027500Y-84712500D01*
X106027500Y-86502500D01*
G37*
G36*
X104237500Y-85607500D02*
G01*
X103342500Y-85607500D01*
X103342500Y-84712500D01*
X104237500Y-84712500D01*
X104237500Y-85607500D01*
G37*
G36*
X91707500Y-83817500D02*
G01*
X90812500Y-83817500D01*
X90812500Y-82922500D01*
X91707500Y-82922500D01*
X91707500Y-83817500D01*
G37*
G36*
X92602500Y-79342500D02*
G01*
X94392500Y-79342500D01*
X94392500Y-78447500D01*
X95287500Y-78447500D01*
X95287500Y-79342500D01*
X95287500Y-80237500D01*
X94392500Y-80237500D01*
X94392500Y-81132500D01*
X93497500Y-81132500D01*
X93497500Y-82922500D01*
X91707500Y-82922500D01*
X91707500Y-81132500D01*
X92602500Y-81132500D01*
X92602500Y-80237500D01*
X91707500Y-80237500D01*
X91707500Y-81132500D01*
X90812500Y-81132500D01*
X90812500Y-80237500D01*
X90812500Y-79342500D01*
X91707500Y-79342500D01*
X91707500Y-78447500D01*
X92602500Y-78447500D01*
X92602500Y-79342500D01*
G37*
G36*
X110502500Y-82027500D02*
G01*
X106027500Y-82027500D01*
X106027500Y-81132500D01*
X110502500Y-81132500D01*
X110502500Y-82027500D01*
G37*
G36*
X113187500Y-79342500D02*
G01*
X113187500Y-80237500D01*
X113187500Y-82027500D01*
X112292500Y-82027500D01*
X112292500Y-80237500D01*
X111397500Y-80237500D01*
X111397500Y-79342500D01*
X112292500Y-79342500D01*
X112292500Y-78447500D01*
X113187500Y-78447500D01*
X113187500Y-79342500D01*
G37*
G36*
X103342500Y-81132500D02*
G01*
X102447500Y-81132500D01*
X102447500Y-80237500D01*
X103342500Y-80237500D01*
X103342500Y-81132500D01*
G37*
G36*
X111397500Y-81132500D02*
G01*
X110502500Y-81132500D01*
X110502500Y-80237500D01*
X111397500Y-80237500D01*
X111397500Y-81132500D01*
G37*
G36*
X99762500Y-75762500D02*
G01*
X99762500Y-76657500D01*
X100657500Y-76657500D01*
X100657500Y-77552500D01*
X100657500Y-78447500D01*
X99762500Y-78447500D01*
X99762500Y-77552500D01*
X98867500Y-77552500D01*
X98867500Y-78447500D01*
X99762500Y-78447500D01*
X99762500Y-79342500D01*
X99762500Y-80237500D01*
X98867500Y-80237500D01*
X98867500Y-79342500D01*
X97972500Y-79342500D01*
X97972500Y-78447500D01*
X97972500Y-77552500D01*
X97972500Y-76657500D01*
X97972500Y-75762500D01*
X98867500Y-75762500D01*
X98867500Y-74867500D01*
X99762500Y-74867500D01*
X99762500Y-75762500D01*
G37*
G36*
X102447500Y-78447500D02*
G01*
X102447500Y-79342500D01*
X101552500Y-79342500D01*
X101552500Y-80237500D01*
X100657500Y-80237500D01*
X100657500Y-79342500D01*
X100657500Y-78447500D01*
X101552500Y-78447500D01*
X101552500Y-77552500D01*
X102447500Y-77552500D01*
X102447500Y-78447500D01*
G37*
G36*
X105132500Y-78447500D02*
G01*
X104237500Y-78447500D01*
X104237500Y-80237500D01*
X103342500Y-80237500D01*
X103342500Y-78447500D01*
X103342500Y-77552500D01*
X105132500Y-77552500D01*
X105132500Y-78447500D01*
G37*
G36*
X110502500Y-74867500D02*
G01*
X110502500Y-75762500D01*
X112292500Y-75762500D01*
X112292500Y-76657500D01*
X112292500Y-78447500D01*
X111397500Y-78447500D01*
X111397500Y-76657500D01*
X110502500Y-76657500D01*
X110502500Y-77552500D01*
X110502500Y-78447500D01*
X109607500Y-78447500D01*
X109607500Y-79342500D01*
X108712500Y-79342500D01*
X108712500Y-80237500D01*
X106922500Y-80237500D01*
X106922500Y-79342500D01*
X107817500Y-79342500D01*
X107817500Y-78447500D01*
X106922500Y-78447500D01*
X106922500Y-79342500D01*
X105132500Y-79342500D01*
X105132500Y-78447500D01*
X106027500Y-78447500D01*
X106027500Y-77552500D01*
X107817500Y-77552500D01*
X107817500Y-76657500D01*
X108712500Y-76657500D01*
X108712500Y-77552500D01*
X109607500Y-77552500D01*
X109607500Y-76657500D01*
X108712500Y-76657500D01*
X108712500Y-75762500D01*
X107817500Y-75762500D01*
X107817500Y-74867500D01*
X108712500Y-74867500D01*
X108712500Y-73972500D01*
X110502500Y-73972500D01*
X110502500Y-74867500D01*
G37*
G36*
X111397500Y-79342500D02*
G01*
X110502500Y-79342500D01*
X110502500Y-78447500D01*
X111397500Y-78447500D01*
X111397500Y-79342500D01*
G37*
G36*
X96182500Y-75762500D02*
G01*
X95287500Y-75762500D01*
X95287500Y-76657500D01*
X94392500Y-76657500D01*
X94392500Y-77552500D01*
X91707500Y-77552500D01*
X91707500Y-78447500D01*
X90812500Y-78447500D01*
X90812500Y-77552500D01*
X90812500Y-76657500D01*
X90812500Y-75762500D01*
X91707500Y-75762500D01*
X91707500Y-76657500D01*
X93497500Y-76657500D01*
X93497500Y-75762500D01*
X91707500Y-75762500D01*
X91707500Y-74867500D01*
X96182500Y-74867500D01*
X96182500Y-75762500D01*
G37*
G36*
X96182500Y-77552500D02*
G01*
X97077500Y-77552500D01*
X97077500Y-78447500D01*
X95287500Y-78447500D01*
X95287500Y-77552500D01*
X95287500Y-76657500D01*
X96182500Y-76657500D01*
X96182500Y-77552500D01*
G37*
G36*
X106027500Y-77552500D02*
G01*
X105132500Y-77552500D01*
X105132500Y-76657500D01*
X106027500Y-76657500D01*
X106027500Y-77552500D01*
G37*
G36*
X102447500Y-76657500D02*
G01*
X101552500Y-76657500D01*
X101552500Y-75762500D01*
X102447500Y-75762500D01*
X102447500Y-76657500D01*
G37*
G36*
X105132500Y-76657500D02*
G01*
X104237500Y-76657500D01*
X104237500Y-75762500D01*
X105132500Y-75762500D01*
X105132500Y-76657500D01*
G37*
G36*
X107817500Y-76657500D02*
G01*
X106922500Y-76657500D01*
X106922500Y-75762500D01*
X107817500Y-75762500D01*
X107817500Y-76657500D01*
G37*
G36*
X104237500Y-75762500D02*
G01*
X103342500Y-75762500D01*
X103342500Y-74867500D01*
X104237500Y-74867500D01*
X104237500Y-75762500D01*
G37*
G36*
X106027500Y-75762500D02*
G01*
X105132500Y-75762500D01*
X105132500Y-74867500D01*
X106027500Y-74867500D01*
X106027500Y-75762500D01*
G37*
G36*
X91707500Y-74867500D02*
G01*
X90812500Y-74867500D01*
X90812500Y-73972500D01*
X91707500Y-73972500D01*
X91707500Y-74867500D01*
G37*
G36*
X97077500Y-74867500D02*
G01*
X96182500Y-74867500D01*
X96182500Y-73972500D01*
X97077500Y-73972500D01*
X97077500Y-74867500D01*
G37*
G36*
X98867500Y-74867500D02*
G01*
X97972500Y-74867500D01*
X97972500Y-73972500D01*
X98867500Y-73972500D01*
X98867500Y-74867500D01*
G37*
G36*
X100657500Y-73077500D02*
G01*
X101552500Y-73077500D01*
X101552500Y-72182500D01*
X102447500Y-72182500D01*
X102447500Y-73077500D01*
X102447500Y-73972500D01*
X102447500Y-74867500D01*
X101552500Y-74867500D01*
X101552500Y-73972500D01*
X99762500Y-73972500D01*
X99762500Y-73077500D01*
X99762500Y-72182500D01*
X100657500Y-72182500D01*
X100657500Y-73077500D01*
G37*
G36*
X106027500Y-73077500D02*
G01*
X106027500Y-73972500D01*
X105132500Y-73972500D01*
X105132500Y-74867500D01*
X104237500Y-74867500D01*
X104237500Y-73972500D01*
X104237500Y-73077500D01*
X105132500Y-73077500D01*
X105132500Y-72182500D01*
X106027500Y-72182500D01*
X106027500Y-73077500D01*
G37*
G36*
X107817500Y-74867500D02*
G01*
X106922500Y-74867500D01*
X106922500Y-73972500D01*
X107817500Y-73972500D01*
X107817500Y-74867500D01*
G37*
G36*
X113187500Y-74867500D02*
G01*
X111397500Y-74867500D01*
X111397500Y-73972500D01*
X113187500Y-73972500D01*
X113187500Y-74867500D01*
G37*
G36*
X95287500Y-71287500D02*
G01*
X92602500Y-71287500D01*
X92602500Y-68602500D01*
X95287500Y-68602500D01*
X95287500Y-71287500D01*
G37*
G36*
X97077500Y-72182500D02*
G01*
X97077500Y-73077500D01*
X90812500Y-73077500D01*
X90812500Y-72182500D01*
X90812500Y-67707500D01*
X91707500Y-67707500D01*
X91707500Y-72182500D01*
X96182500Y-72182500D01*
X96182500Y-67707500D01*
X91707500Y-67707500D01*
X90812500Y-67707500D01*
X90812500Y-66812500D01*
X97077500Y-66812500D01*
X97077500Y-67707500D01*
X97077500Y-72182500D01*
G37*
G36*
X98867500Y-73077500D02*
G01*
X97972500Y-73077500D01*
X97972500Y-70392500D01*
X98867500Y-70392500D01*
X98867500Y-73077500D01*
G37*
G36*
X104237500Y-73077500D02*
G01*
X103342500Y-73077500D01*
X103342500Y-72182500D01*
X104237500Y-72182500D01*
X104237500Y-73077500D01*
G37*
G36*
X111397500Y-71287500D02*
G01*
X108712500Y-71287500D01*
X108712500Y-68602500D01*
X111397500Y-68602500D01*
X111397500Y-71287500D01*
G37*
G36*
X113187500Y-72182500D02*
G01*
X113187500Y-73077500D01*
X106922500Y-73077500D01*
X106922500Y-72182500D01*
X106922500Y-67707500D01*
X107817500Y-67707500D01*
X107817500Y-72182500D01*
X112292500Y-72182500D01*
X112292500Y-67707500D01*
X107817500Y-67707500D01*
X106922500Y-67707500D01*
X106922500Y-66812500D01*
X113187500Y-66812500D01*
X113187500Y-67707500D01*
X113187500Y-72182500D01*
G37*
G36*
X101552500Y-72182500D02*
G01*
X100657500Y-72182500D01*
X100657500Y-71287500D01*
X101552500Y-71287500D01*
X101552500Y-72182500D01*
G37*
G36*
X106027500Y-67707500D02*
G01*
X103342500Y-67707500D01*
X103342500Y-68602500D01*
X103342500Y-69497500D01*
X104237500Y-69497500D01*
X104237500Y-70392500D01*
X104237500Y-71287500D01*
X103342500Y-71287500D01*
X103342500Y-72182500D01*
X102447500Y-72182500D01*
X102447500Y-71287500D01*
X101552500Y-71287500D01*
X101552500Y-70392500D01*
X102447500Y-70392500D01*
X102447500Y-69497500D01*
X102447500Y-68602500D01*
X101552500Y-68602500D01*
X101552500Y-67707500D01*
X102447500Y-67707500D01*
X102447500Y-66812500D01*
X106027500Y-66812500D01*
X106027500Y-67707500D01*
G37*
G36*
X105132500Y-72182500D02*
G01*
X104237500Y-72182500D01*
X104237500Y-71287500D01*
X105132500Y-71287500D01*
X105132500Y-72182500D01*
G37*
G36*
X101552500Y-69497500D02*
G01*
X101552500Y-70392500D01*
X99762500Y-70392500D01*
X99762500Y-69497500D01*
X100657500Y-69497500D01*
X100657500Y-68602500D01*
X101552500Y-68602500D01*
X101552500Y-69497500D01*
G37*
G36*
X99762500Y-69497500D02*
G01*
X98867500Y-69497500D01*
X98867500Y-68602500D01*
X99762500Y-68602500D01*
X99762500Y-69497500D01*
G37*
G36*
X105132500Y-69497500D02*
G01*
X104237500Y-69497500D01*
X104237500Y-68602500D01*
X105132500Y-68602500D01*
X105132500Y-69497500D01*
G37*
G36*
X98867500Y-68602500D02*
G01*
X97972500Y-68602500D01*
X97972500Y-67707500D01*
X98867500Y-67707500D01*
X98867500Y-68602500D01*
G37*
G36*
X100657500Y-67707500D02*
G01*
X99762500Y-67707500D01*
X99762500Y-66812500D01*
X100657500Y-66812500D01*
X100657500Y-67707500D01*
G37*
D11*
X91907200Y-92357142D02*
X91954819Y-92499999D01*
X91954819Y-92499999D02*
X91954819Y-92738094D01*
X91954819Y-92738094D02*
X91907200Y-92833332D01*
X91907200Y-92833332D02*
X91859580Y-92880951D01*
X91859580Y-92880951D02*
X91764342Y-92928570D01*
X91764342Y-92928570D02*
X91669104Y-92928570D01*
X91669104Y-92928570D02*
X91573866Y-92880951D01*
X91573866Y-92880951D02*
X91526247Y-92833332D01*
X91526247Y-92833332D02*
X91478628Y-92738094D01*
X91478628Y-92738094D02*
X91431009Y-92547618D01*
X91431009Y-92547618D02*
X91383390Y-92452380D01*
X91383390Y-92452380D02*
X91335771Y-92404761D01*
X91335771Y-92404761D02*
X91240533Y-92357142D01*
X91240533Y-92357142D02*
X91145295Y-92357142D01*
X91145295Y-92357142D02*
X91050057Y-92404761D01*
X91050057Y-92404761D02*
X91002438Y-92452380D01*
X91002438Y-92452380D02*
X90954819Y-92547618D01*
X90954819Y-92547618D02*
X90954819Y-92785713D01*
X90954819Y-92785713D02*
X91002438Y-92928570D01*
X91288152Y-93214285D02*
X91288152Y-93595237D01*
X90954819Y-93357142D02*
X91811961Y-93357142D01*
X91811961Y-93357142D02*
X91907200Y-93404761D01*
X91907200Y-93404761D02*
X91954819Y-93499999D01*
X91954819Y-93499999D02*
X91954819Y-93595237D01*
X91954819Y-94357142D02*
X91431009Y-94357142D01*
X91431009Y-94357142D02*
X91335771Y-94309523D01*
X91335771Y-94309523D02*
X91288152Y-94214285D01*
X91288152Y-94214285D02*
X91288152Y-94023809D01*
X91288152Y-94023809D02*
X91335771Y-93928571D01*
X91907200Y-94357142D02*
X91954819Y-94261904D01*
X91954819Y-94261904D02*
X91954819Y-94023809D01*
X91954819Y-94023809D02*
X91907200Y-93928571D01*
X91907200Y-93928571D02*
X91811961Y-93880952D01*
X91811961Y-93880952D02*
X91716723Y-93880952D01*
X91716723Y-93880952D02*
X91621485Y-93928571D01*
X91621485Y-93928571D02*
X91573866Y-94023809D01*
X91573866Y-94023809D02*
X91573866Y-94261904D01*
X91573866Y-94261904D02*
X91526247Y-94357142D01*
X91288152Y-94690476D02*
X91288152Y-95071428D01*
X90954819Y-94833333D02*
X91811961Y-94833333D01*
X91811961Y-94833333D02*
X91907200Y-94880952D01*
X91907200Y-94880952D02*
X91954819Y-94976190D01*
X91954819Y-94976190D02*
X91954819Y-95071428D01*
X91288152Y-95833333D02*
X91954819Y-95833333D01*
X91288152Y-95404762D02*
X91811961Y-95404762D01*
X91811961Y-95404762D02*
X91907200Y-95452381D01*
X91907200Y-95452381D02*
X91954819Y-95547619D01*
X91954819Y-95547619D02*
X91954819Y-95690476D01*
X91954819Y-95690476D02*
X91907200Y-95785714D01*
X91907200Y-95785714D02*
X91859580Y-95833333D01*
X91907200Y-96261905D02*
X91954819Y-96357143D01*
X91954819Y-96357143D02*
X91954819Y-96547619D01*
X91954819Y-96547619D02*
X91907200Y-96642857D01*
X91907200Y-96642857D02*
X91811961Y-96690476D01*
X91811961Y-96690476D02*
X91764342Y-96690476D01*
X91764342Y-96690476D02*
X91669104Y-96642857D01*
X91669104Y-96642857D02*
X91621485Y-96547619D01*
X91621485Y-96547619D02*
X91621485Y-96404762D01*
X91621485Y-96404762D02*
X91573866Y-96309524D01*
X91573866Y-96309524D02*
X91478628Y-96261905D01*
X91478628Y-96261905D02*
X91431009Y-96261905D01*
X91431009Y-96261905D02*
X91335771Y-96309524D01*
X91335771Y-96309524D02*
X91288152Y-96404762D01*
X91288152Y-96404762D02*
X91288152Y-96547619D01*
X91288152Y-96547619D02*
X91335771Y-96642857D01*
X91954819Y-97642857D02*
X91954819Y-97071429D01*
X91954819Y-97357143D02*
X90954819Y-97357143D01*
X90954819Y-97357143D02*
X91097676Y-97261905D01*
X91097676Y-97261905D02*
X91192914Y-97166667D01*
X91192914Y-97166667D02*
X91240533Y-97071429D01*
%TO.C,R28*%
D12*
X88977500Y-98557742D02*
X88977500Y-99032258D01*
X90022500Y-98557742D02*
X90022500Y-99032258D01*
%TO.C,Status1*%
X88540000Y-96685000D02*
X88540000Y-94000000D01*
X90460000Y-94000000D02*
X90460000Y-96685000D01*
X90460000Y-96685000D02*
X88540000Y-96685000D01*
%TD*%
M02*
