%TF.GenerationSoftware,KiCad,Pcbnew,10.0.5*%
%TF.CreationDate,2026-07-27T21:22:42+02:00*%
%TF.ProjectId,ledcube,6c656463-7562-4652-9e6b-696361645f70,rev?*%
%TF.SameCoordinates,Original*%
%TF.FileFunction,Legend,Top*%
%TF.FilePolarity,Positive*%
%FSLAX46Y46*%
G04 Gerber Fmt 4.6, Leading zero omitted, Abs format (unit mm)*
G04 Created by KiCad (PCBNEW 10.0.5) date 2026-07-27 21:22:42*
%MOMM*%
%LPD*%
G01*
G04 APERTURE LIST*
%ADD10C,0.100000*%
%ADD11C,0.300000*%
%ADD12C,0.150000*%
%ADD13C,0.120000*%
G04 APERTURE END LIST*
D10*
X103803884Y-100491466D02*
X104565789Y-100491466D01*
X105565788Y-99920038D02*
X105470550Y-99872419D01*
X105470550Y-99872419D02*
X105327693Y-99872419D01*
X105327693Y-99872419D02*
X105184836Y-99920038D01*
X105184836Y-99920038D02*
X105089598Y-100015276D01*
X105089598Y-100015276D02*
X105041979Y-100110514D01*
X105041979Y-100110514D02*
X104994360Y-100300990D01*
X104994360Y-100300990D02*
X104994360Y-100443847D01*
X104994360Y-100443847D02*
X105041979Y-100634323D01*
X105041979Y-100634323D02*
X105089598Y-100729561D01*
X105089598Y-100729561D02*
X105184836Y-100824800D01*
X105184836Y-100824800D02*
X105327693Y-100872419D01*
X105327693Y-100872419D02*
X105422931Y-100872419D01*
X105422931Y-100872419D02*
X105565788Y-100824800D01*
X105565788Y-100824800D02*
X105613407Y-100777180D01*
X105613407Y-100777180D02*
X105613407Y-100443847D01*
X105613407Y-100443847D02*
X105422931Y-100443847D01*
X106041979Y-100872419D02*
X106041979Y-99872419D01*
X106041979Y-99872419D02*
X106613407Y-100872419D01*
X106613407Y-100872419D02*
X106613407Y-99872419D01*
X107089598Y-100872419D02*
X107089598Y-99872419D01*
X107089598Y-99872419D02*
X107327693Y-99872419D01*
X107327693Y-99872419D02*
X107470550Y-99920038D01*
X107470550Y-99920038D02*
X107565788Y-100015276D01*
X107565788Y-100015276D02*
X107613407Y-100110514D01*
X107613407Y-100110514D02*
X107661026Y-100300990D01*
X107661026Y-100300990D02*
X107661026Y-100443847D01*
X107661026Y-100443847D02*
X107613407Y-100634323D01*
X107613407Y-100634323D02*
X107565788Y-100729561D01*
X107565788Y-100729561D02*
X107470550Y-100824800D01*
X107470550Y-100824800D02*
X107327693Y-100872419D01*
X107327693Y-100872419D02*
X107089598Y-100872419D01*
X104803884Y-93491466D02*
X105565789Y-93491466D01*
X105184836Y-93872419D02*
X105184836Y-93110514D01*
X106518169Y-92872419D02*
X106041979Y-92872419D01*
X106041979Y-92872419D02*
X105994360Y-93348609D01*
X105994360Y-93348609D02*
X106041979Y-93300990D01*
X106041979Y-93300990D02*
X106137217Y-93253371D01*
X106137217Y-93253371D02*
X106375312Y-93253371D01*
X106375312Y-93253371D02*
X106470550Y-93300990D01*
X106470550Y-93300990D02*
X106518169Y-93348609D01*
X106518169Y-93348609D02*
X106565788Y-93443847D01*
X106565788Y-93443847D02*
X106565788Y-93681942D01*
X106565788Y-93681942D02*
X106518169Y-93777180D01*
X106518169Y-93777180D02*
X106470550Y-93824800D01*
X106470550Y-93824800D02*
X106375312Y-93872419D01*
X106375312Y-93872419D02*
X106137217Y-93872419D01*
X106137217Y-93872419D02*
X106041979Y-93824800D01*
X106041979Y-93824800D02*
X105994360Y-93777180D01*
X106851503Y-92872419D02*
X107184836Y-93872419D01*
X107184836Y-93872419D02*
X107518169Y-92872419D01*
D11*
G36*
X82150482Y-87328246D02*
G01*
X82272292Y-87347588D01*
X82362698Y-87375828D01*
X82447451Y-87417759D01*
X82521108Y-87468420D01*
X82584807Y-87527961D01*
X82639006Y-87596132D01*
X82678287Y-87665571D01*
X82704058Y-87736971D01*
X82735403Y-87886865D01*
X82745000Y-88013668D01*
X82745000Y-88703257D01*
X81244371Y-88703257D01*
X81244371Y-88123302D01*
X81584357Y-88123302D01*
X81584357Y-88239074D01*
X82405013Y-88239074D01*
X82405013Y-88125317D01*
X82400415Y-88027385D01*
X82388784Y-87961125D01*
X82372773Y-87918322D01*
X82347013Y-87881558D01*
X82310179Y-87849517D01*
X82260025Y-87822059D01*
X82204603Y-87804669D01*
X82120753Y-87792096D01*
X81999265Y-87787163D01*
X81874342Y-87793620D01*
X81782932Y-87810557D01*
X81717689Y-87835005D01*
X81672468Y-87865107D01*
X81636388Y-87906655D01*
X81608997Y-87961229D01*
X81590991Y-88032052D01*
X81584357Y-88123302D01*
X81244371Y-88123302D01*
X81244371Y-88013668D01*
X81251429Y-87877974D01*
X81270658Y-87769757D01*
X81299692Y-87684215D01*
X81342263Y-87604777D01*
X81394983Y-87535980D01*
X81458328Y-87476761D01*
X81530217Y-87427589D01*
X81610089Y-87387960D01*
X81698938Y-87357876D01*
X81838769Y-87330369D01*
X81989556Y-87320965D01*
X82150482Y-87328246D01*
G37*
G36*
X82319573Y-85916657D02*
G01*
X82427315Y-85948223D01*
X82522832Y-85999721D01*
X82608162Y-86072212D01*
X82663922Y-86141028D01*
X82708051Y-86219823D01*
X82740673Y-86310054D01*
X82761218Y-86413611D01*
X82768447Y-86532732D01*
X82759260Y-86663601D01*
X82733205Y-86776051D01*
X82691755Y-86873051D01*
X82635273Y-86956982D01*
X82564566Y-87029071D01*
X82487173Y-87084040D01*
X82402162Y-87123334D01*
X82308062Y-87147417D01*
X82202964Y-87155734D01*
X82081300Y-87144743D01*
X81974080Y-87113006D01*
X81878515Y-87061075D01*
X81792636Y-86987756D01*
X81736101Y-86918125D01*
X81691606Y-86839405D01*
X81658904Y-86750300D01*
X81638424Y-86649116D01*
X81631252Y-86533831D01*
X81631659Y-86527603D01*
X81912620Y-86527603D01*
X81920572Y-86585143D01*
X81943824Y-86634660D01*
X81983511Y-86678270D01*
X82034299Y-86709291D01*
X82104245Y-86729951D01*
X82199300Y-86737713D01*
X82295868Y-86729965D01*
X82366245Y-86709442D01*
X82416737Y-86678820D01*
X82456202Y-86635578D01*
X82479232Y-86586887D01*
X82487079Y-86530717D01*
X82479267Y-86473792D01*
X82456492Y-86425137D01*
X82417745Y-86382614D01*
X82367916Y-86352803D01*
X82296179Y-86332496D01*
X82195178Y-86324729D01*
X82101492Y-86332361D01*
X82032555Y-86352673D01*
X81982504Y-86383164D01*
X81943154Y-86425910D01*
X81920346Y-86473419D01*
X81912620Y-86527603D01*
X81631659Y-86527603D01*
X81639912Y-86401374D01*
X81664342Y-86288545D01*
X81702899Y-86192263D01*
X81754918Y-86109992D01*
X81820754Y-86039880D01*
X81900676Y-85981669D01*
X81988837Y-85940055D01*
X82086827Y-85914528D01*
X82196735Y-85905700D01*
X82319573Y-85916657D01*
G37*
G36*
X81654699Y-85701909D02*
G01*
X81654699Y-85312556D01*
X81813335Y-85312556D01*
X81750996Y-85253285D01*
X81705057Y-85196948D01*
X81673018Y-85143021D01*
X81650534Y-85084497D01*
X81636294Y-85016241D01*
X81631252Y-84936483D01*
X81637077Y-84850612D01*
X81652929Y-84783187D01*
X81677048Y-84730586D01*
X81711671Y-84684063D01*
X81756617Y-84642798D01*
X81813335Y-84606572D01*
X81719962Y-84506868D01*
X81669446Y-84427237D01*
X81649030Y-84371954D01*
X81635936Y-84306002D01*
X81631252Y-84227385D01*
X81638426Y-84140702D01*
X81658679Y-84067786D01*
X81690956Y-84006107D01*
X81735391Y-83953802D01*
X81789654Y-83913649D01*
X81859439Y-83882972D01*
X81948385Y-83862822D01*
X82060997Y-83855433D01*
X82745000Y-83855433D01*
X82745000Y-84273547D01*
X82120806Y-84273547D01*
X82052609Y-84281653D01*
X82010439Y-84302215D01*
X81978134Y-84333497D01*
X81959793Y-84367849D01*
X81953653Y-84406720D01*
X81959812Y-84453436D01*
X81977552Y-84492437D01*
X82007325Y-84525605D01*
X82045920Y-84548822D01*
X82101452Y-84564626D01*
X82179608Y-84570668D01*
X82745000Y-84570668D01*
X82745000Y-84988781D01*
X82142971Y-84988781D01*
X82076724Y-84991350D01*
X82045244Y-84996933D01*
X82007918Y-85015289D01*
X81978932Y-85043095D01*
X81960072Y-85078400D01*
X81953653Y-85119940D01*
X81959811Y-85165234D01*
X81977755Y-85203964D01*
X82008241Y-85237817D01*
X82047521Y-85261434D01*
X82105063Y-85277647D01*
X82187210Y-85283888D01*
X82745000Y-85283888D01*
X82745000Y-85701909D01*
X81654699Y-85701909D01*
G37*
G36*
X81244371Y-83589636D02*
G01*
X81244371Y-83172622D01*
X81525739Y-83172622D01*
X81525739Y-83589636D01*
X81244371Y-83589636D01*
G37*
G36*
X81654699Y-83589636D02*
G01*
X81654699Y-83172622D01*
X82745000Y-83172622D01*
X82745000Y-83589636D01*
X81654699Y-83589636D01*
G37*
G36*
X81654699Y-82906000D02*
G01*
X81654699Y-82517654D01*
X81833485Y-82517654D01*
X81764443Y-82455949D01*
X81713560Y-82397386D01*
X81677964Y-82341433D01*
X81652819Y-82280260D01*
X81636898Y-82208517D01*
X81631252Y-82124179D01*
X81638346Y-82038516D01*
X81658387Y-81966331D01*
X81690351Y-81905153D01*
X81734384Y-81853161D01*
X81788189Y-81813029D01*
X81856783Y-81782509D01*
X81943564Y-81762546D01*
X82052754Y-81755250D01*
X82745000Y-81755250D01*
X82745000Y-82174371D01*
X82146910Y-82174371D01*
X82079318Y-82179565D01*
X82032912Y-82192947D01*
X82002013Y-82212290D01*
X81978897Y-82240155D01*
X81964617Y-82274992D01*
X81959515Y-82318902D01*
X81966027Y-82366764D01*
X81984904Y-82407139D01*
X82016851Y-82441909D01*
X82058346Y-82465480D01*
X82123839Y-82482317D01*
X82222747Y-82488986D01*
X82745000Y-82488986D01*
X82745000Y-82906000D01*
X81654699Y-82906000D01*
G37*
G36*
X81244371Y-81491102D02*
G01*
X81244371Y-81074088D01*
X81525739Y-81074088D01*
X81525739Y-81491102D01*
X81244371Y-81491102D01*
G37*
G36*
X81654699Y-81491102D02*
G01*
X81654699Y-81074088D01*
X82745000Y-81074088D01*
X82745000Y-81491102D01*
X81654699Y-81491102D01*
G37*
G36*
X81244371Y-80807466D02*
G01*
X81244371Y-80381201D01*
X82016759Y-80381201D01*
X81654699Y-80069700D01*
X81654699Y-79556332D01*
X82036543Y-79946693D01*
X82745000Y-79533801D01*
X82745000Y-80004121D01*
X82308202Y-80224397D01*
X82461617Y-80381201D01*
X82745000Y-80381201D01*
X82745000Y-80807466D01*
X81244371Y-80807466D01*
G37*
G36*
X81244371Y-79407954D02*
G01*
X81244371Y-78990940D01*
X81796849Y-78990940D01*
X81718145Y-78902966D01*
X81669537Y-78821863D01*
X81641357Y-78732838D01*
X81631252Y-78623019D01*
X81638323Y-78539078D01*
X81658363Y-78467908D01*
X81690454Y-78407158D01*
X81734842Y-78355115D01*
X81788914Y-78314927D01*
X81857578Y-78284408D01*
X81944149Y-78264478D01*
X82052754Y-78257204D01*
X82745000Y-78257204D01*
X82745000Y-78676325D01*
X82146910Y-78676325D01*
X82079318Y-78681519D01*
X82032912Y-78694901D01*
X82002013Y-78714244D01*
X81978897Y-78742109D01*
X81964617Y-78776946D01*
X81959515Y-78820856D01*
X81966027Y-78868718D01*
X81984904Y-78909093D01*
X82016851Y-78943862D01*
X82058346Y-78967434D01*
X82123839Y-78984271D01*
X82222747Y-78990940D01*
X82745000Y-78990940D01*
X82745000Y-79407954D01*
X81244371Y-79407954D01*
G37*
G36*
X82745000Y-76861814D02*
G01*
X82745000Y-77251168D01*
X82566672Y-77251168D01*
X82635907Y-77312896D01*
X82686731Y-77371299D01*
X82722102Y-77426931D01*
X82746994Y-77487738D01*
X82762817Y-77559594D01*
X82768447Y-77644643D01*
X82761376Y-77729762D01*
X82741378Y-77801642D01*
X82709444Y-77862708D01*
X82665407Y-77914745D01*
X82611557Y-77954875D01*
X82543063Y-77985366D01*
X82456581Y-78005289D01*
X82347952Y-78012564D01*
X81654699Y-78012564D01*
X81654699Y-77593444D01*
X82251965Y-77593444D01*
X82319490Y-77588263D01*
X82366054Y-77574889D01*
X82397228Y-77555525D01*
X82420614Y-77527624D01*
X82435036Y-77492787D01*
X82440184Y-77448913D01*
X82433723Y-77401754D01*
X82414911Y-77361562D01*
X82382940Y-77326547D01*
X82341391Y-77302624D01*
X82275968Y-77285574D01*
X82177318Y-77278828D01*
X81654699Y-77278828D01*
X81654699Y-76861814D01*
X82745000Y-76861814D01*
G37*
G36*
X81654699Y-76608931D02*
G01*
X81654699Y-76220585D01*
X81833485Y-76220585D01*
X81764443Y-76158879D01*
X81713560Y-76100317D01*
X81677964Y-76044364D01*
X81652819Y-75983190D01*
X81636898Y-75911448D01*
X81631252Y-75827110D01*
X81638346Y-75741447D01*
X81658387Y-75669262D01*
X81690351Y-75608084D01*
X81734384Y-75556092D01*
X81788189Y-75515960D01*
X81856783Y-75485440D01*
X81943564Y-75465477D01*
X82052754Y-75458181D01*
X82745000Y-75458181D01*
X82745000Y-75877302D01*
X82146910Y-75877302D01*
X82079318Y-75882496D01*
X82032912Y-75895878D01*
X82002013Y-75915221D01*
X81978897Y-75943086D01*
X81964617Y-75977923D01*
X81959515Y-76021833D01*
X81966027Y-76069695D01*
X81984904Y-76110070D01*
X82016851Y-76144839D01*
X82058346Y-76168411D01*
X82123839Y-76185248D01*
X82222747Y-76191917D01*
X82745000Y-76191917D01*
X82745000Y-76608931D01*
X81654699Y-76608931D01*
G37*
G36*
X82745000Y-74027987D02*
G01*
X82745000Y-75280128D01*
X82624861Y-75256267D01*
X82509274Y-75213071D01*
X82396953Y-75149519D01*
X82295188Y-75068048D01*
X82168815Y-74936637D01*
X82012637Y-74740107D01*
X81881194Y-74576031D01*
X81806741Y-74505451D01*
X81735427Y-74466006D01*
X81673292Y-74454252D01*
X81629889Y-74459909D01*
X81591450Y-74476566D01*
X81556605Y-74504993D01*
X81529907Y-74541319D01*
X81513766Y-74583298D01*
X81508154Y-74632579D01*
X81514040Y-74683737D01*
X81530879Y-74726653D01*
X81558620Y-74763188D01*
X81595819Y-74790615D01*
X81652911Y-74813907D01*
X81736765Y-74831332D01*
X81702785Y-75249354D01*
X81585975Y-75226531D01*
X81495441Y-75195961D01*
X81426363Y-75159228D01*
X81365954Y-75110222D01*
X81315296Y-75049129D01*
X81273955Y-74974306D01*
X81246490Y-74892732D01*
X81227881Y-74784690D01*
X81220924Y-74643845D01*
X81227561Y-74496412D01*
X81245214Y-74384479D01*
X81271024Y-74301111D01*
X81310949Y-74224436D01*
X81362054Y-74160739D01*
X81424989Y-74108495D01*
X81496853Y-74069511D01*
X81573876Y-74046174D01*
X81657630Y-74038245D01*
X81746707Y-74046996D01*
X81833507Y-74073405D01*
X81919489Y-74118662D01*
X81996762Y-74179007D01*
X82087131Y-74273357D01*
X82192980Y-74411204D01*
X82314338Y-74579823D01*
X82405013Y-74679657D01*
X82405013Y-74027987D01*
X82745000Y-74027987D01*
G37*
G36*
X81244371Y-73680765D02*
G01*
X81244371Y-72689933D01*
X81584357Y-72689933D01*
X81584357Y-73361112D01*
X81808114Y-73396924D01*
X81779159Y-73326804D01*
X81759022Y-73259080D01*
X81746675Y-73190909D01*
X81742627Y-73124349D01*
X81751714Y-73013154D01*
X81777688Y-72916772D01*
X81819576Y-72832582D01*
X81877724Y-72758626D01*
X81949669Y-72697185D01*
X82029201Y-72653790D01*
X82117893Y-72627350D01*
X82217984Y-72618217D01*
X82312317Y-72626153D01*
X82404340Y-72650005D01*
X82495231Y-72690482D01*
X82577293Y-72745607D01*
X82644564Y-72813494D01*
X82698380Y-72895372D01*
X82735628Y-72986542D01*
X82759734Y-73098336D01*
X82768447Y-73235083D01*
X82760892Y-73378107D01*
X82740512Y-73489706D01*
X82704855Y-73589663D01*
X82657255Y-73670049D01*
X82597410Y-73738013D01*
X82531775Y-73790399D01*
X82455967Y-73831326D01*
X82356928Y-73867244D01*
X82311224Y-73445101D01*
X82375854Y-73429263D01*
X82425856Y-73405128D01*
X82464090Y-73373385D01*
X82493214Y-73333314D01*
X82510491Y-73289061D01*
X82516388Y-73239204D01*
X82509026Y-73184083D01*
X82487570Y-73136755D01*
X82451175Y-73095223D01*
X82404277Y-73065311D01*
X82341020Y-73045658D01*
X82256453Y-73038345D01*
X82169794Y-73045870D01*
X82107040Y-73065814D01*
X82062280Y-73095773D01*
X82028395Y-73137515D01*
X82007791Y-73187554D01*
X82000547Y-73248364D01*
X82007786Y-73307431D01*
X82029856Y-73365142D01*
X82057375Y-73406383D01*
X82106793Y-73457374D01*
X82056143Y-73812931D01*
X81244371Y-73680765D01*
G37*
G36*
X82155828Y-71229844D02*
G01*
X82297299Y-71249163D01*
X82412427Y-71278533D01*
X82505331Y-71316226D01*
X82579586Y-71361130D01*
X82643902Y-71420171D01*
X82695350Y-71494188D01*
X82734196Y-71585820D01*
X82759348Y-71698770D01*
X82768447Y-71837586D01*
X82760846Y-71963152D01*
X82740028Y-72063781D01*
X82708271Y-72143958D01*
X82662172Y-72216737D01*
X82603676Y-72280369D01*
X82531592Y-72335567D01*
X82474384Y-72366992D01*
X82400187Y-72395460D01*
X82305546Y-72420105D01*
X82158035Y-72442441D01*
X81988549Y-72450331D01*
X81806701Y-72442261D01*
X81661883Y-72420322D01*
X81547888Y-72387407D01*
X81459250Y-72345631D01*
X81391375Y-72296183D01*
X81332875Y-72231904D01*
X81286182Y-72155120D01*
X81251232Y-72063805D01*
X81228895Y-71955276D01*
X81221813Y-71840700D01*
X81496430Y-71840700D01*
X81502977Y-71888896D01*
X81521805Y-71928742D01*
X81553488Y-71962301D01*
X81600844Y-71990269D01*
X81673769Y-72012578D01*
X81796057Y-72029482D01*
X81987267Y-72036339D01*
X82180469Y-72028796D01*
X82303643Y-72010224D01*
X82376895Y-71985689D01*
X82424839Y-71955610D01*
X82456482Y-71921615D01*
X82474927Y-71883164D01*
X82481217Y-71838594D01*
X82470193Y-71779422D01*
X82436979Y-71728501D01*
X82404587Y-71701985D01*
X82359066Y-71678870D01*
X82296936Y-71659900D01*
X82187792Y-71644395D01*
X81998532Y-71637826D01*
X81796678Y-71645505D01*
X81671058Y-71664214D01*
X81598829Y-71688568D01*
X81552311Y-71718504D01*
X81521186Y-71753193D01*
X81502779Y-71793315D01*
X81496430Y-71840700D01*
X81221813Y-71840700D01*
X81220924Y-71826321D01*
X81225644Y-71725272D01*
X81238581Y-71643316D01*
X81258202Y-71577376D01*
X81302291Y-71487033D01*
X81355197Y-71418557D01*
X81417527Y-71362750D01*
X81480768Y-71321745D01*
X81550158Y-71290552D01*
X81634366Y-71264867D01*
X81804274Y-71233466D01*
X81983420Y-71222827D01*
X82155828Y-71229844D01*
G37*
D12*
X93452380Y-56431009D02*
X93595237Y-56478628D01*
X93595237Y-56478628D02*
X93642856Y-56526247D01*
X93642856Y-56526247D02*
X93690475Y-56621485D01*
X93690475Y-56621485D02*
X93690475Y-56764342D01*
X93690475Y-56764342D02*
X93642856Y-56859580D01*
X93642856Y-56859580D02*
X93595237Y-56907200D01*
X93595237Y-56907200D02*
X93499999Y-56954819D01*
X93499999Y-56954819D02*
X93119047Y-56954819D01*
X93119047Y-56954819D02*
X93119047Y-55954819D01*
X93119047Y-55954819D02*
X93452380Y-55954819D01*
X93452380Y-55954819D02*
X93547618Y-56002438D01*
X93547618Y-56002438D02*
X93595237Y-56050057D01*
X93595237Y-56050057D02*
X93642856Y-56145295D01*
X93642856Y-56145295D02*
X93642856Y-56240533D01*
X93642856Y-56240533D02*
X93595237Y-56335771D01*
X93595237Y-56335771D02*
X93547618Y-56383390D01*
X93547618Y-56383390D02*
X93452380Y-56431009D01*
X93452380Y-56431009D02*
X93119047Y-56431009D01*
X94261904Y-56954819D02*
X94166666Y-56907200D01*
X94166666Y-56907200D02*
X94119047Y-56811961D01*
X94119047Y-56811961D02*
X94119047Y-55954819D01*
X95071428Y-56288152D02*
X95071428Y-56954819D01*
X94642857Y-56288152D02*
X94642857Y-56811961D01*
X94642857Y-56811961D02*
X94690476Y-56907200D01*
X94690476Y-56907200D02*
X94785714Y-56954819D01*
X94785714Y-56954819D02*
X94928571Y-56954819D01*
X94928571Y-56954819D02*
X95023809Y-56907200D01*
X95023809Y-56907200D02*
X95071428Y-56859580D01*
X95928571Y-56907200D02*
X95833333Y-56954819D01*
X95833333Y-56954819D02*
X95642857Y-56954819D01*
X95642857Y-56954819D02*
X95547619Y-56907200D01*
X95547619Y-56907200D02*
X95500000Y-56811961D01*
X95500000Y-56811961D02*
X95500000Y-56431009D01*
X95500000Y-56431009D02*
X95547619Y-56335771D01*
X95547619Y-56335771D02*
X95642857Y-56288152D01*
X95642857Y-56288152D02*
X95833333Y-56288152D01*
X95833333Y-56288152D02*
X95928571Y-56335771D01*
X95928571Y-56335771D02*
X95976190Y-56431009D01*
X95976190Y-56431009D02*
X95976190Y-56526247D01*
X95976190Y-56526247D02*
X95500000Y-56621485D01*
X96928571Y-56954819D02*
X96357143Y-56954819D01*
X96642857Y-56954819D02*
X96642857Y-55954819D01*
X96642857Y-55954819D02*
X96547619Y-56097676D01*
X96547619Y-56097676D02*
X96452381Y-56192914D01*
X96452381Y-56192914D02*
X96357143Y-56240533D01*
X90261905Y-75954819D02*
X90261905Y-74954819D01*
X90261905Y-74954819D02*
X90500000Y-74954819D01*
X90500000Y-74954819D02*
X90642857Y-75002438D01*
X90642857Y-75002438D02*
X90738095Y-75097676D01*
X90738095Y-75097676D02*
X90785714Y-75192914D01*
X90785714Y-75192914D02*
X90833333Y-75383390D01*
X90833333Y-75383390D02*
X90833333Y-75526247D01*
X90833333Y-75526247D02*
X90785714Y-75716723D01*
X90785714Y-75716723D02*
X90738095Y-75811961D01*
X90738095Y-75811961D02*
X90642857Y-75907200D01*
X90642857Y-75907200D02*
X90500000Y-75954819D01*
X90500000Y-75954819D02*
X90261905Y-75954819D01*
X91214286Y-75050057D02*
X91261905Y-75002438D01*
X91261905Y-75002438D02*
X91357143Y-74954819D01*
X91357143Y-74954819D02*
X91595238Y-74954819D01*
X91595238Y-74954819D02*
X91690476Y-75002438D01*
X91690476Y-75002438D02*
X91738095Y-75050057D01*
X91738095Y-75050057D02*
X91785714Y-75145295D01*
X91785714Y-75145295D02*
X91785714Y-75240533D01*
X91785714Y-75240533D02*
X91738095Y-75383390D01*
X91738095Y-75383390D02*
X91166667Y-75954819D01*
X91166667Y-75954819D02*
X91785714Y-75954819D01*
X113261905Y-75954819D02*
X113261905Y-74954819D01*
X113261905Y-74954819D02*
X113500000Y-74954819D01*
X113500000Y-74954819D02*
X113642857Y-75002438D01*
X113642857Y-75002438D02*
X113738095Y-75097676D01*
X113738095Y-75097676D02*
X113785714Y-75192914D01*
X113785714Y-75192914D02*
X113833333Y-75383390D01*
X113833333Y-75383390D02*
X113833333Y-75526247D01*
X113833333Y-75526247D02*
X113785714Y-75716723D01*
X113785714Y-75716723D02*
X113738095Y-75811961D01*
X113738095Y-75811961D02*
X113642857Y-75907200D01*
X113642857Y-75907200D02*
X113500000Y-75954819D01*
X113500000Y-75954819D02*
X113261905Y-75954819D01*
X114404762Y-75383390D02*
X114309524Y-75335771D01*
X114309524Y-75335771D02*
X114261905Y-75288152D01*
X114261905Y-75288152D02*
X114214286Y-75192914D01*
X114214286Y-75192914D02*
X114214286Y-75145295D01*
X114214286Y-75145295D02*
X114261905Y-75050057D01*
X114261905Y-75050057D02*
X114309524Y-75002438D01*
X114309524Y-75002438D02*
X114404762Y-74954819D01*
X114404762Y-74954819D02*
X114595238Y-74954819D01*
X114595238Y-74954819D02*
X114690476Y-75002438D01*
X114690476Y-75002438D02*
X114738095Y-75050057D01*
X114738095Y-75050057D02*
X114785714Y-75145295D01*
X114785714Y-75145295D02*
X114785714Y-75192914D01*
X114785714Y-75192914D02*
X114738095Y-75288152D01*
X114738095Y-75288152D02*
X114690476Y-75335771D01*
X114690476Y-75335771D02*
X114595238Y-75383390D01*
X114595238Y-75383390D02*
X114404762Y-75383390D01*
X114404762Y-75383390D02*
X114309524Y-75431009D01*
X114309524Y-75431009D02*
X114261905Y-75478628D01*
X114261905Y-75478628D02*
X114214286Y-75573866D01*
X114214286Y-75573866D02*
X114214286Y-75764342D01*
X114214286Y-75764342D02*
X114261905Y-75859580D01*
X114261905Y-75859580D02*
X114309524Y-75907200D01*
X114309524Y-75907200D02*
X114404762Y-75954819D01*
X114404762Y-75954819D02*
X114595238Y-75954819D01*
X114595238Y-75954819D02*
X114690476Y-75907200D01*
X114690476Y-75907200D02*
X114738095Y-75859580D01*
X114738095Y-75859580D02*
X114785714Y-75764342D01*
X114785714Y-75764342D02*
X114785714Y-75573866D01*
X114785714Y-75573866D02*
X114738095Y-75478628D01*
X114738095Y-75478628D02*
X114690476Y-75431009D01*
X114690476Y-75431009D02*
X114595238Y-75383390D01*
X113261905Y-69334819D02*
X113261905Y-68334819D01*
X113261905Y-68334819D02*
X113500000Y-68334819D01*
X113500000Y-68334819D02*
X113642857Y-68382438D01*
X113642857Y-68382438D02*
X113738095Y-68477676D01*
X113738095Y-68477676D02*
X113785714Y-68572914D01*
X113785714Y-68572914D02*
X113833333Y-68763390D01*
X113833333Y-68763390D02*
X113833333Y-68906247D01*
X113833333Y-68906247D02*
X113785714Y-69096723D01*
X113785714Y-69096723D02*
X113738095Y-69191961D01*
X113738095Y-69191961D02*
X113642857Y-69287200D01*
X113642857Y-69287200D02*
X113500000Y-69334819D01*
X113500000Y-69334819D02*
X113261905Y-69334819D01*
X114166667Y-68334819D02*
X114833333Y-68334819D01*
X114833333Y-68334819D02*
X114404762Y-69334819D01*
X101761905Y-82574819D02*
X101761905Y-81574819D01*
X101761905Y-81574819D02*
X102000000Y-81574819D01*
X102000000Y-81574819D02*
X102142857Y-81622438D01*
X102142857Y-81622438D02*
X102238095Y-81717676D01*
X102238095Y-81717676D02*
X102285714Y-81812914D01*
X102285714Y-81812914D02*
X102333333Y-82003390D01*
X102333333Y-82003390D02*
X102333333Y-82146247D01*
X102333333Y-82146247D02*
X102285714Y-82336723D01*
X102285714Y-82336723D02*
X102238095Y-82431961D01*
X102238095Y-82431961D02*
X102142857Y-82527200D01*
X102142857Y-82527200D02*
X102000000Y-82574819D01*
X102000000Y-82574819D02*
X101761905Y-82574819D01*
X103190476Y-81574819D02*
X103000000Y-81574819D01*
X103000000Y-81574819D02*
X102904762Y-81622438D01*
X102904762Y-81622438D02*
X102857143Y-81670057D01*
X102857143Y-81670057D02*
X102761905Y-81812914D01*
X102761905Y-81812914D02*
X102714286Y-82003390D01*
X102714286Y-82003390D02*
X102714286Y-82384342D01*
X102714286Y-82384342D02*
X102761905Y-82479580D01*
X102761905Y-82479580D02*
X102809524Y-82527200D01*
X102809524Y-82527200D02*
X102904762Y-82574819D01*
X102904762Y-82574819D02*
X103095238Y-82574819D01*
X103095238Y-82574819D02*
X103190476Y-82527200D01*
X103190476Y-82527200D02*
X103238095Y-82479580D01*
X103238095Y-82479580D02*
X103285714Y-82384342D01*
X103285714Y-82384342D02*
X103285714Y-82146247D01*
X103285714Y-82146247D02*
X103238095Y-82051009D01*
X103238095Y-82051009D02*
X103190476Y-82003390D01*
X103190476Y-82003390D02*
X103095238Y-81955771D01*
X103095238Y-81955771D02*
X102904762Y-81955771D01*
X102904762Y-81955771D02*
X102809524Y-82003390D01*
X102809524Y-82003390D02*
X102761905Y-82051009D01*
X102761905Y-82051009D02*
X102714286Y-82146247D01*
X101761905Y-69334819D02*
X101761905Y-68334819D01*
X101761905Y-68334819D02*
X102000000Y-68334819D01*
X102000000Y-68334819D02*
X102142857Y-68382438D01*
X102142857Y-68382438D02*
X102238095Y-68477676D01*
X102238095Y-68477676D02*
X102285714Y-68572914D01*
X102285714Y-68572914D02*
X102333333Y-68763390D01*
X102333333Y-68763390D02*
X102333333Y-68906247D01*
X102333333Y-68906247D02*
X102285714Y-69096723D01*
X102285714Y-69096723D02*
X102238095Y-69191961D01*
X102238095Y-69191961D02*
X102142857Y-69287200D01*
X102142857Y-69287200D02*
X102000000Y-69334819D01*
X102000000Y-69334819D02*
X101761905Y-69334819D01*
X103190476Y-68668152D02*
X103190476Y-69334819D01*
X102952381Y-68287200D02*
X102714286Y-69001485D01*
X102714286Y-69001485D02*
X103333333Y-69001485D01*
X116952380Y-93954819D02*
X116619047Y-93478628D01*
X116380952Y-93954819D02*
X116380952Y-92954819D01*
X116380952Y-92954819D02*
X116761904Y-92954819D01*
X116761904Y-92954819D02*
X116857142Y-93002438D01*
X116857142Y-93002438D02*
X116904761Y-93050057D01*
X116904761Y-93050057D02*
X116952380Y-93145295D01*
X116952380Y-93145295D02*
X116952380Y-93288152D01*
X116952380Y-93288152D02*
X116904761Y-93383390D01*
X116904761Y-93383390D02*
X116857142Y-93431009D01*
X116857142Y-93431009D02*
X116761904Y-93478628D01*
X116761904Y-93478628D02*
X116380952Y-93478628D01*
X117761904Y-93907200D02*
X117666666Y-93954819D01*
X117666666Y-93954819D02*
X117476190Y-93954819D01*
X117476190Y-93954819D02*
X117380952Y-93907200D01*
X117380952Y-93907200D02*
X117333333Y-93811961D01*
X117333333Y-93811961D02*
X117333333Y-93431009D01*
X117333333Y-93431009D02*
X117380952Y-93335771D01*
X117380952Y-93335771D02*
X117476190Y-93288152D01*
X117476190Y-93288152D02*
X117666666Y-93288152D01*
X117666666Y-93288152D02*
X117761904Y-93335771D01*
X117761904Y-93335771D02*
X117809523Y-93431009D01*
X117809523Y-93431009D02*
X117809523Y-93526247D01*
X117809523Y-93526247D02*
X117333333Y-93621485D01*
X118666666Y-93954819D02*
X118666666Y-92954819D01*
X118666666Y-93907200D02*
X118571428Y-93954819D01*
X118571428Y-93954819D02*
X118380952Y-93954819D01*
X118380952Y-93954819D02*
X118285714Y-93907200D01*
X118285714Y-93907200D02*
X118238095Y-93859580D01*
X118238095Y-93859580D02*
X118190476Y-93764342D01*
X118190476Y-93764342D02*
X118190476Y-93478628D01*
X118190476Y-93478628D02*
X118238095Y-93383390D01*
X118238095Y-93383390D02*
X118285714Y-93335771D01*
X118285714Y-93335771D02*
X118380952Y-93288152D01*
X118380952Y-93288152D02*
X118571428Y-93288152D01*
X118571428Y-93288152D02*
X118666666Y-93335771D01*
X119666666Y-93954819D02*
X119095238Y-93954819D01*
X119380952Y-93954819D02*
X119380952Y-92954819D01*
X119380952Y-92954819D02*
X119285714Y-93097676D01*
X119285714Y-93097676D02*
X119190476Y-93192914D01*
X119190476Y-93192914D02*
X119095238Y-93240533D01*
X113261905Y-82574819D02*
X113261905Y-81574819D01*
X113261905Y-81574819D02*
X113500000Y-81574819D01*
X113500000Y-81574819D02*
X113642857Y-81622438D01*
X113642857Y-81622438D02*
X113738095Y-81717676D01*
X113738095Y-81717676D02*
X113785714Y-81812914D01*
X113785714Y-81812914D02*
X113833333Y-82003390D01*
X113833333Y-82003390D02*
X113833333Y-82146247D01*
X113833333Y-82146247D02*
X113785714Y-82336723D01*
X113785714Y-82336723D02*
X113738095Y-82431961D01*
X113738095Y-82431961D02*
X113642857Y-82527200D01*
X113642857Y-82527200D02*
X113500000Y-82574819D01*
X113500000Y-82574819D02*
X113261905Y-82574819D01*
X114309524Y-82574819D02*
X114500000Y-82574819D01*
X114500000Y-82574819D02*
X114595238Y-82527200D01*
X114595238Y-82527200D02*
X114642857Y-82479580D01*
X114642857Y-82479580D02*
X114738095Y-82336723D01*
X114738095Y-82336723D02*
X114785714Y-82146247D01*
X114785714Y-82146247D02*
X114785714Y-81765295D01*
X114785714Y-81765295D02*
X114738095Y-81670057D01*
X114738095Y-81670057D02*
X114690476Y-81622438D01*
X114690476Y-81622438D02*
X114595238Y-81574819D01*
X114595238Y-81574819D02*
X114404762Y-81574819D01*
X114404762Y-81574819D02*
X114309524Y-81622438D01*
X114309524Y-81622438D02*
X114261905Y-81670057D01*
X114261905Y-81670057D02*
X114214286Y-81765295D01*
X114214286Y-81765295D02*
X114214286Y-82003390D01*
X114214286Y-82003390D02*
X114261905Y-82098628D01*
X114261905Y-82098628D02*
X114309524Y-82146247D01*
X114309524Y-82146247D02*
X114404762Y-82193866D01*
X114404762Y-82193866D02*
X114595238Y-82193866D01*
X114595238Y-82193866D02*
X114690476Y-82146247D01*
X114690476Y-82146247D02*
X114738095Y-82098628D01*
X114738095Y-82098628D02*
X114785714Y-82003390D01*
X101761905Y-75954819D02*
X101761905Y-74954819D01*
X101761905Y-74954819D02*
X102000000Y-74954819D01*
X102000000Y-74954819D02*
X102142857Y-75002438D01*
X102142857Y-75002438D02*
X102238095Y-75097676D01*
X102238095Y-75097676D02*
X102285714Y-75192914D01*
X102285714Y-75192914D02*
X102333333Y-75383390D01*
X102333333Y-75383390D02*
X102333333Y-75526247D01*
X102333333Y-75526247D02*
X102285714Y-75716723D01*
X102285714Y-75716723D02*
X102238095Y-75811961D01*
X102238095Y-75811961D02*
X102142857Y-75907200D01*
X102142857Y-75907200D02*
X102000000Y-75954819D01*
X102000000Y-75954819D02*
X101761905Y-75954819D01*
X103238095Y-74954819D02*
X102761905Y-74954819D01*
X102761905Y-74954819D02*
X102714286Y-75431009D01*
X102714286Y-75431009D02*
X102761905Y-75383390D01*
X102761905Y-75383390D02*
X102857143Y-75335771D01*
X102857143Y-75335771D02*
X103095238Y-75335771D01*
X103095238Y-75335771D02*
X103190476Y-75383390D01*
X103190476Y-75383390D02*
X103238095Y-75431009D01*
X103238095Y-75431009D02*
X103285714Y-75526247D01*
X103285714Y-75526247D02*
X103285714Y-75764342D01*
X103285714Y-75764342D02*
X103238095Y-75859580D01*
X103238095Y-75859580D02*
X103190476Y-75907200D01*
X103190476Y-75907200D02*
X103095238Y-75954819D01*
X103095238Y-75954819D02*
X102857143Y-75954819D01*
X102857143Y-75954819D02*
X102761905Y-75907200D01*
X102761905Y-75907200D02*
X102714286Y-75859580D01*
X108166666Y-56002438D02*
X108071428Y-55954819D01*
X108071428Y-55954819D02*
X107928571Y-55954819D01*
X107928571Y-55954819D02*
X107785714Y-56002438D01*
X107785714Y-56002438D02*
X107690476Y-56097676D01*
X107690476Y-56097676D02*
X107642857Y-56192914D01*
X107642857Y-56192914D02*
X107595238Y-56383390D01*
X107595238Y-56383390D02*
X107595238Y-56526247D01*
X107595238Y-56526247D02*
X107642857Y-56716723D01*
X107642857Y-56716723D02*
X107690476Y-56811961D01*
X107690476Y-56811961D02*
X107785714Y-56907200D01*
X107785714Y-56907200D02*
X107928571Y-56954819D01*
X107928571Y-56954819D02*
X108023809Y-56954819D01*
X108023809Y-56954819D02*
X108166666Y-56907200D01*
X108166666Y-56907200D02*
X108214285Y-56859580D01*
X108214285Y-56859580D02*
X108214285Y-56526247D01*
X108214285Y-56526247D02*
X108023809Y-56526247D01*
X108642857Y-56954819D02*
X108642857Y-56288152D01*
X108642857Y-56478628D02*
X108690476Y-56383390D01*
X108690476Y-56383390D02*
X108738095Y-56335771D01*
X108738095Y-56335771D02*
X108833333Y-56288152D01*
X108833333Y-56288152D02*
X108928571Y-56288152D01*
X109642857Y-56907200D02*
X109547619Y-56954819D01*
X109547619Y-56954819D02*
X109357143Y-56954819D01*
X109357143Y-56954819D02*
X109261905Y-56907200D01*
X109261905Y-56907200D02*
X109214286Y-56811961D01*
X109214286Y-56811961D02*
X109214286Y-56431009D01*
X109214286Y-56431009D02*
X109261905Y-56335771D01*
X109261905Y-56335771D02*
X109357143Y-56288152D01*
X109357143Y-56288152D02*
X109547619Y-56288152D01*
X109547619Y-56288152D02*
X109642857Y-56335771D01*
X109642857Y-56335771D02*
X109690476Y-56431009D01*
X109690476Y-56431009D02*
X109690476Y-56526247D01*
X109690476Y-56526247D02*
X109214286Y-56621485D01*
X110500000Y-56907200D02*
X110404762Y-56954819D01*
X110404762Y-56954819D02*
X110214286Y-56954819D01*
X110214286Y-56954819D02*
X110119048Y-56907200D01*
X110119048Y-56907200D02*
X110071429Y-56811961D01*
X110071429Y-56811961D02*
X110071429Y-56431009D01*
X110071429Y-56431009D02*
X110119048Y-56335771D01*
X110119048Y-56335771D02*
X110214286Y-56288152D01*
X110214286Y-56288152D02*
X110404762Y-56288152D01*
X110404762Y-56288152D02*
X110500000Y-56335771D01*
X110500000Y-56335771D02*
X110547619Y-56431009D01*
X110547619Y-56431009D02*
X110547619Y-56526247D01*
X110547619Y-56526247D02*
X110071429Y-56621485D01*
X110976191Y-56288152D02*
X110976191Y-56954819D01*
X110976191Y-56383390D02*
X111023810Y-56335771D01*
X111023810Y-56335771D02*
X111119048Y-56288152D01*
X111119048Y-56288152D02*
X111261905Y-56288152D01*
X111261905Y-56288152D02*
X111357143Y-56335771D01*
X111357143Y-56335771D02*
X111404762Y-56431009D01*
X111404762Y-56431009D02*
X111404762Y-56954819D01*
X112404762Y-56954819D02*
X111833334Y-56954819D01*
X112119048Y-56954819D02*
X112119048Y-55954819D01*
X112119048Y-55954819D02*
X112023810Y-56097676D01*
X112023810Y-56097676D02*
X111928572Y-56192914D01*
X111928572Y-56192914D02*
X111833334Y-56240533D01*
X90261905Y-82574819D02*
X90261905Y-81574819D01*
X90261905Y-81574819D02*
X90500000Y-81574819D01*
X90500000Y-81574819D02*
X90642857Y-81622438D01*
X90642857Y-81622438D02*
X90738095Y-81717676D01*
X90738095Y-81717676D02*
X90785714Y-81812914D01*
X90785714Y-81812914D02*
X90833333Y-82003390D01*
X90833333Y-82003390D02*
X90833333Y-82146247D01*
X90833333Y-82146247D02*
X90785714Y-82336723D01*
X90785714Y-82336723D02*
X90738095Y-82431961D01*
X90738095Y-82431961D02*
X90642857Y-82527200D01*
X90642857Y-82527200D02*
X90500000Y-82574819D01*
X90500000Y-82574819D02*
X90261905Y-82574819D01*
X91166667Y-81574819D02*
X91785714Y-81574819D01*
X91785714Y-81574819D02*
X91452381Y-81955771D01*
X91452381Y-81955771D02*
X91595238Y-81955771D01*
X91595238Y-81955771D02*
X91690476Y-82003390D01*
X91690476Y-82003390D02*
X91738095Y-82051009D01*
X91738095Y-82051009D02*
X91785714Y-82146247D01*
X91785714Y-82146247D02*
X91785714Y-82384342D01*
X91785714Y-82384342D02*
X91738095Y-82479580D01*
X91738095Y-82479580D02*
X91690476Y-82527200D01*
X91690476Y-82527200D02*
X91595238Y-82574819D01*
X91595238Y-82574819D02*
X91309524Y-82574819D01*
X91309524Y-82574819D02*
X91214286Y-82527200D01*
X91214286Y-82527200D02*
X91166667Y-82479580D01*
X90261905Y-69334819D02*
X90261905Y-68334819D01*
X90261905Y-68334819D02*
X90500000Y-68334819D01*
X90500000Y-68334819D02*
X90642857Y-68382438D01*
X90642857Y-68382438D02*
X90738095Y-68477676D01*
X90738095Y-68477676D02*
X90785714Y-68572914D01*
X90785714Y-68572914D02*
X90833333Y-68763390D01*
X90833333Y-68763390D02*
X90833333Y-68906247D01*
X90833333Y-68906247D02*
X90785714Y-69096723D01*
X90785714Y-69096723D02*
X90738095Y-69191961D01*
X90738095Y-69191961D02*
X90642857Y-69287200D01*
X90642857Y-69287200D02*
X90500000Y-69334819D01*
X90500000Y-69334819D02*
X90261905Y-69334819D01*
X91785714Y-69334819D02*
X91214286Y-69334819D01*
X91500000Y-69334819D02*
X91500000Y-68334819D01*
X91500000Y-68334819D02*
X91404762Y-68477676D01*
X91404762Y-68477676D02*
X91309524Y-68572914D01*
X91309524Y-68572914D02*
X91214286Y-68620533D01*
%TO.C,R23*%
D13*
X108737258Y-78477500D02*
X108262742Y-78477500D01*
X108737258Y-79522500D02*
X108262742Y-79522500D01*
%TO.C,R7*%
X85912258Y-86977500D02*
X85437742Y-86977500D01*
X85912258Y-88022500D02*
X85437742Y-88022500D01*
%TO.C,Blue1*%
X91535000Y-57640000D02*
X98465000Y-57640000D01*
X91535000Y-58553000D02*
X91535000Y-57640000D01*
X91535000Y-62360000D02*
X91535000Y-58987000D01*
X98465000Y-57640000D02*
X98465000Y-58553000D01*
X98465000Y-58987000D02*
X98465000Y-62360000D01*
X98465000Y-62360000D02*
X91535000Y-62360000D01*
%TO.C,D2*%
X87400000Y-76700000D02*
X87400000Y-81750000D01*
X87850000Y-76250000D02*
X87400000Y-76700000D01*
X94600000Y-76250000D02*
X87850000Y-76250000D01*
X94600000Y-81750000D02*
X87400000Y-81750000D01*
X94600000Y-81750000D02*
X94600000Y-76250000D01*
%TO.C,D8*%
X110400000Y-76700000D02*
X110400000Y-81750000D01*
X110850000Y-76250000D02*
X110400000Y-76700000D01*
X117600000Y-76250000D02*
X110850000Y-76250000D01*
X117600000Y-81750000D02*
X110400000Y-81750000D01*
X117600000Y-81750000D02*
X117600000Y-76250000D01*
%TO.C,R10*%
X97237258Y-73977500D02*
X96762742Y-73977500D01*
X97237258Y-75022500D02*
X96762742Y-75022500D01*
%TO.C,P1*%
X100666000Y-97600000D02*
X100666000Y-99600000D01*
X100666000Y-101500000D02*
X100666000Y-103010000D01*
X100666000Y-103010000D02*
X109826000Y-103010000D01*
X109826000Y-97600000D02*
X109826000Y-99600000D01*
X109826000Y-101500000D02*
X109826000Y-103010000D01*
%TO.C,D7*%
X110400000Y-70080000D02*
X110400000Y-75130000D01*
X110850000Y-69630000D02*
X110400000Y-70080000D01*
X117600000Y-69630000D02*
X110850000Y-69630000D01*
X117600000Y-75130000D02*
X110400000Y-75130000D01*
X117600000Y-75130000D02*
X117600000Y-69630000D01*
%TO.C,R26*%
X108737258Y-85477500D02*
X108262742Y-85477500D01*
X108737258Y-86522500D02*
X108262742Y-86522500D01*
%TO.C,R5*%
X85737258Y-78477500D02*
X85262742Y-78477500D01*
X85737258Y-79522500D02*
X85262742Y-79522500D01*
%TO.C,R2*%
X85737258Y-71977500D02*
X85262742Y-71977500D01*
X85737258Y-73022500D02*
X85262742Y-73022500D01*
%TO.C,R6*%
X85737258Y-76477500D02*
X85262742Y-76477500D01*
X85737258Y-77522500D02*
X85262742Y-77522500D01*
%TO.C,R14*%
X97237258Y-78477500D02*
X96762742Y-78477500D01*
X97237258Y-79522500D02*
X96762742Y-79522500D01*
%TO.C,R20*%
X108912258Y-71977500D02*
X108437742Y-71977500D01*
X108912258Y-73022500D02*
X108437742Y-73022500D01*
%TO.C,SW2*%
X114355000Y-89162500D02*
X114355000Y-90472500D01*
X114355000Y-89162500D02*
X115738000Y-89162500D01*
X114595000Y-89402500D02*
X114595000Y-90472500D01*
X114595000Y-89402500D02*
X121415000Y-89402500D01*
X114595000Y-92552500D02*
X114595000Y-93622500D01*
X114595000Y-93622500D02*
X121415000Y-93622500D01*
X117401667Y-90877500D02*
X117401667Y-92147500D01*
X121415000Y-89402500D02*
X121415000Y-90552500D01*
X121415000Y-92472500D02*
X121415000Y-93622500D01*
X116195000Y-90877500D02*
X117401667Y-90877500D01*
X117401667Y-92147500D01*
X116195000Y-92147500D01*
X116195000Y-90877500D01*
G36*
X116195000Y-90877500D02*
G01*
X117401667Y-90877500D01*
X117401667Y-92147500D01*
X116195000Y-92147500D01*
X116195000Y-90877500D01*
G37*
X116195000Y-90877500D02*
X119815000Y-90877500D01*
X119815000Y-92147500D01*
X116195000Y-92147500D01*
X116195000Y-90877500D01*
%TO.C,R17*%
X97237258Y-85477500D02*
X96762742Y-85477500D01*
X97237258Y-86522500D02*
X96762742Y-86522500D01*
%TO.C,R21*%
X108737258Y-69977500D02*
X108262742Y-69977500D01*
X108737258Y-71022500D02*
X108262742Y-71022500D01*
%TO.C,R4*%
X85562258Y-80477500D02*
X85087742Y-80477500D01*
X85562258Y-81522500D02*
X85087742Y-81522500D01*
%TO.C,R18*%
X97237258Y-83477500D02*
X96762742Y-83477500D01*
X97237258Y-84522500D02*
X96762742Y-84522500D01*
%TO.C,R1*%
X85737258Y-73977500D02*
X85262742Y-73977500D01*
X85737258Y-75022500D02*
X85262742Y-75022500D01*
%TO.C,F1*%
X80700000Y-89625000D02*
X80700000Y-93725000D01*
X80700000Y-89625000D02*
X89300000Y-89625000D01*
X80700000Y-93725000D02*
X89300000Y-93725000D01*
X89300000Y-89625000D02*
X89300000Y-93725000D01*
%TO.C,R27*%
X108737258Y-82977500D02*
X108262742Y-82977500D01*
X108737258Y-84022500D02*
X108262742Y-84022500D01*
%TO.C,D6*%
X98900000Y-83320000D02*
X98900000Y-88370000D01*
X99350000Y-82870000D02*
X98900000Y-83320000D01*
X106100000Y-82870000D02*
X99350000Y-82870000D01*
X106100000Y-88370000D02*
X98900000Y-88370000D01*
X106100000Y-88370000D02*
X106100000Y-82870000D01*
%TO.C,D4*%
X98900000Y-70080000D02*
X98900000Y-75130000D01*
X99350000Y-69630000D02*
X98900000Y-70080000D01*
X106100000Y-69630000D02*
X99350000Y-69630000D01*
X106100000Y-75130000D02*
X98900000Y-75130000D01*
X106100000Y-75130000D02*
X106100000Y-69630000D01*
%TO.C,R25*%
X108737258Y-87477500D02*
X108262742Y-87477500D01*
X108737258Y-88522500D02*
X108262742Y-88522500D01*
%TO.C,Red1*%
X114535000Y-94640000D02*
X121465000Y-94640000D01*
X114535000Y-95553000D02*
X114535000Y-94640000D01*
X114535000Y-99360000D02*
X114535000Y-95987000D01*
X121465000Y-94640000D02*
X121465000Y-95553000D01*
X121465000Y-95987000D02*
X121465000Y-99360000D01*
X121465000Y-99360000D02*
X114535000Y-99360000D01*
%TO.C,R9*%
X85737258Y-82977500D02*
X85262742Y-82977500D01*
X85737258Y-84022500D02*
X85262742Y-84022500D01*
%TO.C,R12*%
X97237258Y-69977500D02*
X96762742Y-69977500D01*
X97237258Y-71022500D02*
X96762742Y-71022500D01*
%TO.C,R8*%
X85737258Y-84977500D02*
X85262742Y-84977500D01*
X85737258Y-86022500D02*
X85262742Y-86022500D01*
%TO.C,R13*%
X97237258Y-80477500D02*
X96762742Y-80477500D01*
X97237258Y-81522500D02*
X96762742Y-81522500D01*
%TO.C,R19*%
X108737258Y-73477500D02*
X108262742Y-73477500D01*
X108737258Y-74522500D02*
X108262742Y-74522500D01*
%TO.C,SW1*%
X106355000Y-63162500D02*
X106355000Y-64472500D01*
X106355000Y-63162500D02*
X107738000Y-63162500D01*
X106595000Y-63402500D02*
X106595000Y-64472500D01*
X106595000Y-63402500D02*
X113415000Y-63402500D01*
X106595000Y-66552500D02*
X106595000Y-67622500D01*
X106595000Y-67622500D02*
X113415000Y-67622500D01*
X109401667Y-64877500D02*
X109401667Y-66147500D01*
X113415000Y-63402500D02*
X113415000Y-64552500D01*
X113415000Y-66472500D02*
X113415000Y-67622500D01*
X108195000Y-64877500D02*
X109401667Y-64877500D01*
X109401667Y-66147500D01*
X108195000Y-66147500D01*
X108195000Y-64877500D01*
G36*
X108195000Y-64877500D02*
G01*
X109401667Y-64877500D01*
X109401667Y-66147500D01*
X108195000Y-66147500D01*
X108195000Y-64877500D01*
G37*
X108195000Y-64877500D02*
X111815000Y-64877500D01*
X111815000Y-66147500D01*
X108195000Y-66147500D01*
X108195000Y-64877500D01*
%TO.C,D9*%
X110400000Y-83320000D02*
X110400000Y-88370000D01*
X110850000Y-82870000D02*
X110400000Y-83320000D01*
X117600000Y-82870000D02*
X110850000Y-82870000D01*
X117600000Y-88370000D02*
X110400000Y-88370000D01*
X117600000Y-88370000D02*
X117600000Y-82870000D01*
%TO.C,D5*%
X98900000Y-76700000D02*
X98900000Y-81750000D01*
X99350000Y-76250000D02*
X98900000Y-76700000D01*
X106100000Y-76250000D02*
X99350000Y-76250000D01*
X106100000Y-81750000D02*
X98900000Y-81750000D01*
X106100000Y-81750000D02*
X106100000Y-76250000D01*
%TO.C,R11*%
X97237258Y-71977500D02*
X96762742Y-71977500D01*
X97237258Y-73022500D02*
X96762742Y-73022500D01*
%TO.C,R22*%
X108737258Y-80477500D02*
X108262742Y-80477500D01*
X108737258Y-81522500D02*
X108262742Y-81522500D01*
%TO.C,SW3*%
X91355000Y-63162500D02*
X91355000Y-64472500D01*
X91355000Y-63162500D02*
X92738000Y-63162500D01*
X91595000Y-63402500D02*
X91595000Y-64472500D01*
X91595000Y-63402500D02*
X98415000Y-63402500D01*
X91595000Y-66552500D02*
X91595000Y-67622500D01*
X91595000Y-67622500D02*
X98415000Y-67622500D01*
X94401667Y-64877500D02*
X94401667Y-66147500D01*
X98415000Y-63402500D02*
X98415000Y-64552500D01*
X98415000Y-66472500D02*
X98415000Y-67622500D01*
X93195000Y-64877500D02*
X94401667Y-64877500D01*
X94401667Y-66147500D01*
X93195000Y-66147500D01*
X93195000Y-64877500D01*
G36*
X93195000Y-64877500D02*
G01*
X94401667Y-64877500D01*
X94401667Y-66147500D01*
X93195000Y-66147500D01*
X93195000Y-64877500D01*
G37*
X93195000Y-64877500D02*
X96815000Y-64877500D01*
X96815000Y-66147500D01*
X93195000Y-66147500D01*
X93195000Y-64877500D01*
%TO.C,R16*%
X97237258Y-86977500D02*
X96762742Y-86977500D01*
X97237258Y-88022500D02*
X96762742Y-88022500D01*
%TO.C,R3*%
X85737258Y-69977500D02*
X85262742Y-69977500D01*
X85737258Y-71022500D02*
X85262742Y-71022500D01*
%TO.C,R15*%
X97237258Y-76477500D02*
X96762742Y-76477500D01*
X97237258Y-77522500D02*
X96762742Y-77522500D01*
%TO.C,Green1*%
X106535000Y-57640000D02*
X113465000Y-57640000D01*
X106535000Y-58553000D02*
X106535000Y-57640000D01*
X106535000Y-62360000D02*
X106535000Y-58987000D01*
X113465000Y-57640000D02*
X113465000Y-58553000D01*
X113465000Y-58987000D02*
X113465000Y-62360000D01*
X113465000Y-62360000D02*
X106535000Y-62360000D01*
%TO.C,D3*%
X87400000Y-83320000D02*
X87400000Y-88370000D01*
X87850000Y-82870000D02*
X87400000Y-83320000D01*
X94600000Y-82870000D02*
X87850000Y-82870000D01*
X94600000Y-88370000D02*
X87400000Y-88370000D01*
X94600000Y-88370000D02*
X94600000Y-82870000D01*
%TO.C,D1*%
X87400000Y-70080000D02*
X87400000Y-75130000D01*
X87850000Y-69630000D02*
X87400000Y-70080000D01*
X94600000Y-69630000D02*
X87850000Y-69630000D01*
X94600000Y-75130000D02*
X87400000Y-75130000D01*
X94600000Y-75130000D02*
X94600000Y-69630000D01*
%TO.C,R24*%
X108737258Y-76477500D02*
X108262742Y-76477500D01*
X108737258Y-77522500D02*
X108262742Y-77522500D01*
%TD*%
M02*
