M48
; DRILL file KiCad 10.0.5 date 2026-09-04T20:15:24
; FORMAT={-:-/ absolute / metric / decimal}
; #@! TF.CreationDate,2026-09-04T20:15:24+02:00
; #@! TF.GenerationSoftware,Kicad,Pcbnew,10.0.5
; #@! TF.FileFunction,Plated,1,2,PTH
FMAT,2
METRIC
; #@! TA.AperFunction,Plated,PTH,ViaDrill
T1C0.300
; #@! TA.AperFunction,Plated,PTH,ComponentDrill
T2C0.500
%
G90
G05
T1
X84.175Y-67.91
X84.175Y-70.42
X84.175Y-73.0
X84.175Y-75.99
X84.175Y-78.5
X84.175Y-81.01
X84.175Y-83.49
X84.175Y-86.0
X84.175Y-88.51
X89.5Y-99.325
X89.75Y-61.0
X92.5Y-99.325
X95.5Y-99.325
X96.675Y-67.49
X96.675Y-70.0
X96.675Y-72.51
X96.675Y-82.99
X96.675Y-85.5
X96.675Y-88.01
X96.85Y-75.49
X96.85Y-78.0
X96.85Y-80.51
X107.675Y-67.49
X107.675Y-70.0
X107.675Y-72.51
X107.675Y-82.99
X107.675Y-85.5
X107.675Y-88.01
X107.85Y-75.49
X107.85Y-78.0
X107.85Y-80.51
X111.25Y-60.35
X116.2Y-68.2
X116.75Y-61.5
X117.15Y-98.5
X118.3Y-93.0
X122.0Y-68.0
T2
G00X100.926Y-96.15
M15
G01X100.926Y-96.85
M16
G05
G00X100.926Y-99.95
M15
G01X100.926Y-100.65
M16
G05
G00X109.566Y-96.15
M15
G01X109.566Y-96.85
M16
G05
G00X109.566Y-99.95
M15
G01X109.566Y-100.65
M16
G05
M30
