%TF.GenerationSoftware,KiCad,Pcbnew,10.0.5*%
%TF.CreationDate,2026-08-15T20:58:16+02:00*%
%TF.ProjectId,ledcube,6c656463-7562-4652-9e6b-696361645f70,rev?*%
%TF.SameCoordinates,Original*%
%TF.FileFunction,Legend,Bot*%
%TF.FilePolarity,Positive*%
%FSLAX46Y46*%
G04 Gerber Fmt 4.6, Leading zero omitted, Abs format (unit mm)*
G04 Created by KiCad (PCBNEW 10.0.5) date 2026-08-15 20:58:16*
%MOMM*%
%LPD*%
G01*
G04 APERTURE LIST*
%ADD10C,0.000000*%
G04 APERTURE END LIST*
D10*
G36*
X82505000Y-61930000D02*
G01*
X83075000Y-61930000D01*
X83075000Y-62120000D01*
X83265000Y-62120000D01*
X83265000Y-62310000D01*
X82885000Y-62310000D01*
X82885000Y-62120000D01*
X82695000Y-62120000D01*
X82695000Y-62310000D01*
X82315000Y-62310000D01*
X82315000Y-62500000D01*
X82125000Y-62500000D01*
X82125000Y-62310000D01*
X82125000Y-62120000D01*
X82125000Y-61930000D01*
X82125000Y-61740000D01*
X82505000Y-61740000D01*
X82505000Y-61930000D01*
G37*
G36*
X82885000Y-62500000D02*
G01*
X82695000Y-62500000D01*
X82695000Y-62310000D01*
X82885000Y-62310000D01*
X82885000Y-62500000D01*
G37*
G36*
X83455000Y-62500000D02*
G01*
X83265000Y-62500000D01*
X83265000Y-62310000D01*
X83455000Y-62310000D01*
X83455000Y-62500000D01*
G37*
G36*
X83835000Y-62500000D02*
G01*
X83645000Y-62500000D01*
X83645000Y-62310000D01*
X83835000Y-62310000D01*
X83835000Y-62500000D01*
G37*
G36*
X84785000Y-61930000D02*
G01*
X85165000Y-61930000D01*
X85165000Y-62120000D01*
X84785000Y-62120000D01*
X84785000Y-62310000D01*
X84785000Y-62500000D01*
X84405000Y-62500000D01*
X84405000Y-62310000D01*
X84595000Y-62310000D01*
X84595000Y-62120000D01*
X84595000Y-61930000D01*
X84595000Y-61740000D01*
X84785000Y-61740000D01*
X84785000Y-61930000D01*
G37*
G36*
X85355000Y-62310000D02*
G01*
X85355000Y-62500000D01*
X84975000Y-62500000D01*
X84975000Y-62310000D01*
X85165000Y-62310000D01*
X85165000Y-62120000D01*
X85355000Y-62120000D01*
X85355000Y-62310000D01*
G37*
G36*
X86495000Y-62120000D02*
G01*
X85925000Y-62120000D01*
X85925000Y-61550000D01*
X86495000Y-61550000D01*
X86495000Y-62120000D01*
G37*
G36*
X86875000Y-62310000D02*
G01*
X86875000Y-62500000D01*
X85545000Y-62500000D01*
X85545000Y-62310000D01*
X85545000Y-61360000D01*
X85735000Y-61360000D01*
X85735000Y-62310000D01*
X86685000Y-62310000D01*
X86685000Y-61360000D01*
X85735000Y-61360000D01*
X85545000Y-61360000D01*
X85545000Y-61170000D01*
X86875000Y-61170000D01*
X86875000Y-61360000D01*
X86875000Y-62310000D01*
G37*
G36*
X83455000Y-61360000D02*
G01*
X83265000Y-61360000D01*
X83265000Y-61170000D01*
X83455000Y-61170000D01*
X83455000Y-61360000D01*
G37*
G36*
X83835000Y-61360000D02*
G01*
X84405000Y-61360000D01*
X84405000Y-61170000D01*
X84215000Y-61170000D01*
X84215000Y-60980000D01*
X84025000Y-60980000D01*
X84025000Y-60790000D01*
X84025000Y-60600000D01*
X84215000Y-60600000D01*
X84215000Y-60790000D01*
X84595000Y-60790000D01*
X84595000Y-60980000D01*
X84595000Y-61170000D01*
X84785000Y-61170000D01*
X84785000Y-60980000D01*
X84785000Y-60790000D01*
X84975000Y-60790000D01*
X84975000Y-60600000D01*
X85165000Y-60600000D01*
X85165000Y-60790000D01*
X85165000Y-60980000D01*
X85355000Y-60980000D01*
X85355000Y-61170000D01*
X85165000Y-61170000D01*
X85165000Y-61360000D01*
X84975000Y-61360000D01*
X84975000Y-61170000D01*
X84785000Y-61170000D01*
X84785000Y-61360000D01*
X84785000Y-61550000D01*
X84595000Y-61550000D01*
X84595000Y-61360000D01*
X84405000Y-61360000D01*
X84405000Y-61550000D01*
X84215000Y-61550000D01*
X84215000Y-61740000D01*
X84215000Y-61930000D01*
X84025000Y-61930000D01*
X84025000Y-61740000D01*
X83645000Y-61740000D01*
X83645000Y-61930000D01*
X83835000Y-61930000D01*
X83835000Y-62120000D01*
X83645000Y-62120000D01*
X83645000Y-62310000D01*
X83455000Y-62310000D01*
X83455000Y-62120000D01*
X83455000Y-61930000D01*
X83265000Y-61930000D01*
X83265000Y-61740000D01*
X82885000Y-61740000D01*
X82885000Y-61550000D01*
X82885000Y-60980000D01*
X83075000Y-60980000D01*
X83075000Y-61550000D01*
X83645000Y-61550000D01*
X83645000Y-61360000D01*
X83645000Y-60980000D01*
X83075000Y-60980000D01*
X82885000Y-60980000D01*
X82885000Y-60790000D01*
X83075000Y-60790000D01*
X83075000Y-60600000D01*
X83455000Y-60600000D01*
X83455000Y-60410000D01*
X83645000Y-60410000D01*
X83645000Y-60600000D01*
X83835000Y-60600000D01*
X83835000Y-60790000D01*
X83835000Y-60980000D01*
X83835000Y-61360000D01*
G37*
G36*
X85355000Y-61930000D02*
G01*
X85165000Y-61930000D01*
X85165000Y-61550000D01*
X85355000Y-61550000D01*
X85355000Y-61930000D01*
G37*
G36*
X84975000Y-61740000D02*
G01*
X84785000Y-61740000D01*
X84785000Y-61550000D01*
X84975000Y-61550000D01*
X84975000Y-61740000D01*
G37*
G36*
X82315000Y-61360000D02*
G01*
X82125000Y-61360000D01*
X82125000Y-61170000D01*
X82315000Y-61170000D01*
X82315000Y-61360000D01*
G37*
G36*
X82505000Y-60410000D02*
G01*
X82885000Y-60410000D01*
X82885000Y-60220000D01*
X83075000Y-60220000D01*
X83075000Y-60410000D01*
X83075000Y-60600000D01*
X82885000Y-60600000D01*
X82885000Y-60790000D01*
X82695000Y-60790000D01*
X82695000Y-61170000D01*
X82315000Y-61170000D01*
X82315000Y-60790000D01*
X82505000Y-60790000D01*
X82505000Y-60600000D01*
X82315000Y-60600000D01*
X82315000Y-60790000D01*
X82125000Y-60790000D01*
X82125000Y-60600000D01*
X82125000Y-60410000D01*
X82315000Y-60410000D01*
X82315000Y-60220000D01*
X82505000Y-60220000D01*
X82505000Y-60410000D01*
G37*
G36*
X86305000Y-60980000D02*
G01*
X85355000Y-60980000D01*
X85355000Y-60790000D01*
X86305000Y-60790000D01*
X86305000Y-60980000D01*
G37*
G36*
X86875000Y-60410000D02*
G01*
X86875000Y-60600000D01*
X86875000Y-60980000D01*
X86685000Y-60980000D01*
X86685000Y-60600000D01*
X86495000Y-60600000D01*
X86495000Y-60410000D01*
X86685000Y-60410000D01*
X86685000Y-60220000D01*
X86875000Y-60220000D01*
X86875000Y-60410000D01*
G37*
G36*
X84785000Y-60790000D02*
G01*
X84595000Y-60790000D01*
X84595000Y-60600000D01*
X84785000Y-60600000D01*
X84785000Y-60790000D01*
G37*
G36*
X86495000Y-60790000D02*
G01*
X86305000Y-60790000D01*
X86305000Y-60600000D01*
X86495000Y-60600000D01*
X86495000Y-60790000D01*
G37*
G36*
X84025000Y-59650000D02*
G01*
X84025000Y-59840000D01*
X84215000Y-59840000D01*
X84215000Y-60030000D01*
X84215000Y-60220000D01*
X84025000Y-60220000D01*
X84025000Y-60030000D01*
X83835000Y-60030000D01*
X83835000Y-60220000D01*
X84025000Y-60220000D01*
X84025000Y-60410000D01*
X84025000Y-60600000D01*
X83835000Y-60600000D01*
X83835000Y-60410000D01*
X83645000Y-60410000D01*
X83645000Y-60220000D01*
X83645000Y-60030000D01*
X83645000Y-59840000D01*
X83645000Y-59650000D01*
X83835000Y-59650000D01*
X83835000Y-59460000D01*
X84025000Y-59460000D01*
X84025000Y-59650000D01*
G37*
G36*
X84595000Y-60220000D02*
G01*
X84595000Y-60410000D01*
X84405000Y-60410000D01*
X84405000Y-60600000D01*
X84215000Y-60600000D01*
X84215000Y-60410000D01*
X84215000Y-60220000D01*
X84405000Y-60220000D01*
X84405000Y-60030000D01*
X84595000Y-60030000D01*
X84595000Y-60220000D01*
G37*
G36*
X85165000Y-60220000D02*
G01*
X84975000Y-60220000D01*
X84975000Y-60600000D01*
X84785000Y-60600000D01*
X84785000Y-60220000D01*
X84785000Y-60030000D01*
X85165000Y-60030000D01*
X85165000Y-60220000D01*
G37*
G36*
X86305000Y-59460000D02*
G01*
X86305000Y-59650000D01*
X86685000Y-59650000D01*
X86685000Y-59840000D01*
X86685000Y-60220000D01*
X86495000Y-60220000D01*
X86495000Y-59840000D01*
X86305000Y-59840000D01*
X86305000Y-60030000D01*
X86305000Y-60220000D01*
X86115000Y-60220000D01*
X86115000Y-60410000D01*
X85925000Y-60410000D01*
X85925000Y-60600000D01*
X85545000Y-60600000D01*
X85545000Y-60410000D01*
X85735000Y-60410000D01*
X85735000Y-60220000D01*
X85545000Y-60220000D01*
X85545000Y-60410000D01*
X85165000Y-60410000D01*
X85165000Y-60220000D01*
X85355000Y-60220000D01*
X85355000Y-60030000D01*
X85735000Y-60030000D01*
X85735000Y-59840000D01*
X85925000Y-59840000D01*
X85925000Y-60030000D01*
X86115000Y-60030000D01*
X86115000Y-59840000D01*
X85925000Y-59840000D01*
X85925000Y-59650000D01*
X85735000Y-59650000D01*
X85735000Y-59460000D01*
X85925000Y-59460000D01*
X85925000Y-59270000D01*
X86305000Y-59270000D01*
X86305000Y-59460000D01*
G37*
G36*
X86495000Y-60410000D02*
G01*
X86305000Y-60410000D01*
X86305000Y-60220000D01*
X86495000Y-60220000D01*
X86495000Y-60410000D01*
G37*
G36*
X83265000Y-59650000D02*
G01*
X83075000Y-59650000D01*
X83075000Y-59840000D01*
X82885000Y-59840000D01*
X82885000Y-60030000D01*
X82315000Y-60030000D01*
X82315000Y-60220000D01*
X82125000Y-60220000D01*
X82125000Y-60030000D01*
X82125000Y-59840000D01*
X82125000Y-59650000D01*
X82315000Y-59650000D01*
X82315000Y-59840000D01*
X82695000Y-59840000D01*
X82695000Y-59650000D01*
X82315000Y-59650000D01*
X82315000Y-59460000D01*
X83265000Y-59460000D01*
X83265000Y-59650000D01*
G37*
G36*
X83265000Y-60030000D02*
G01*
X83455000Y-60030000D01*
X83455000Y-60220000D01*
X83075000Y-60220000D01*
X83075000Y-60030000D01*
X83075000Y-59840000D01*
X83265000Y-59840000D01*
X83265000Y-60030000D01*
G37*
G36*
X85355000Y-60030000D02*
G01*
X85165000Y-60030000D01*
X85165000Y-59840000D01*
X85355000Y-59840000D01*
X85355000Y-60030000D01*
G37*
G36*
X84595000Y-59840000D02*
G01*
X84405000Y-59840000D01*
X84405000Y-59650000D01*
X84595000Y-59650000D01*
X84595000Y-59840000D01*
G37*
G36*
X85165000Y-59840000D02*
G01*
X84975000Y-59840000D01*
X84975000Y-59650000D01*
X85165000Y-59650000D01*
X85165000Y-59840000D01*
G37*
G36*
X85735000Y-59840000D02*
G01*
X85545000Y-59840000D01*
X85545000Y-59650000D01*
X85735000Y-59650000D01*
X85735000Y-59840000D01*
G37*
G36*
X84975000Y-59650000D02*
G01*
X84785000Y-59650000D01*
X84785000Y-59460000D01*
X84975000Y-59460000D01*
X84975000Y-59650000D01*
G37*
G36*
X85355000Y-59650000D02*
G01*
X85165000Y-59650000D01*
X85165000Y-59460000D01*
X85355000Y-59460000D01*
X85355000Y-59650000D01*
G37*
G36*
X82315000Y-59460000D02*
G01*
X82125000Y-59460000D01*
X82125000Y-59270000D01*
X82315000Y-59270000D01*
X82315000Y-59460000D01*
G37*
G36*
X83455000Y-59460000D02*
G01*
X83265000Y-59460000D01*
X83265000Y-59270000D01*
X83455000Y-59270000D01*
X83455000Y-59460000D01*
G37*
G36*
X83835000Y-59460000D02*
G01*
X83645000Y-59460000D01*
X83645000Y-59270000D01*
X83835000Y-59270000D01*
X83835000Y-59460000D01*
G37*
G36*
X84215000Y-59080000D02*
G01*
X84405000Y-59080000D01*
X84405000Y-58890000D01*
X84595000Y-58890000D01*
X84595000Y-59080000D01*
X84595000Y-59270000D01*
X84595000Y-59460000D01*
X84405000Y-59460000D01*
X84405000Y-59270000D01*
X84025000Y-59270000D01*
X84025000Y-59080000D01*
X84025000Y-58890000D01*
X84215000Y-58890000D01*
X84215000Y-59080000D01*
G37*
G36*
X85355000Y-59080000D02*
G01*
X85355000Y-59270000D01*
X85165000Y-59270000D01*
X85165000Y-59460000D01*
X84975000Y-59460000D01*
X84975000Y-59270000D01*
X84975000Y-59080000D01*
X85165000Y-59080000D01*
X85165000Y-58890000D01*
X85355000Y-58890000D01*
X85355000Y-59080000D01*
G37*
G36*
X85735000Y-59460000D02*
G01*
X85545000Y-59460000D01*
X85545000Y-59270000D01*
X85735000Y-59270000D01*
X85735000Y-59460000D01*
G37*
G36*
X86875000Y-59460000D02*
G01*
X86495000Y-59460000D01*
X86495000Y-59270000D01*
X86875000Y-59270000D01*
X86875000Y-59460000D01*
G37*
G36*
X83075000Y-58700000D02*
G01*
X82505000Y-58700000D01*
X82505000Y-58130000D01*
X83075000Y-58130000D01*
X83075000Y-58700000D01*
G37*
G36*
X83455000Y-58890000D02*
G01*
X83455000Y-59080000D01*
X82125000Y-59080000D01*
X82125000Y-58890000D01*
X82125000Y-57940000D01*
X82315000Y-57940000D01*
X82315000Y-58890000D01*
X83265000Y-58890000D01*
X83265000Y-57940000D01*
X82315000Y-57940000D01*
X82125000Y-57940000D01*
X82125000Y-57750000D01*
X83455000Y-57750000D01*
X83455000Y-57940000D01*
X83455000Y-58890000D01*
G37*
G36*
X83835000Y-59080000D02*
G01*
X83645000Y-59080000D01*
X83645000Y-58510000D01*
X83835000Y-58510000D01*
X83835000Y-59080000D01*
G37*
G36*
X84975000Y-59080000D02*
G01*
X84785000Y-59080000D01*
X84785000Y-58890000D01*
X84975000Y-58890000D01*
X84975000Y-59080000D01*
G37*
G36*
X86495000Y-58700000D02*
G01*
X85925000Y-58700000D01*
X85925000Y-58130000D01*
X86495000Y-58130000D01*
X86495000Y-58700000D01*
G37*
G36*
X86875000Y-58890000D02*
G01*
X86875000Y-59080000D01*
X85545000Y-59080000D01*
X85545000Y-58890000D01*
X85545000Y-57940000D01*
X85735000Y-57940000D01*
X85735000Y-58890000D01*
X86685000Y-58890000D01*
X86685000Y-57940000D01*
X85735000Y-57940000D01*
X85545000Y-57940000D01*
X85545000Y-57750000D01*
X86875000Y-57750000D01*
X86875000Y-57940000D01*
X86875000Y-58890000D01*
G37*
G36*
X84405000Y-58890000D02*
G01*
X84215000Y-58890000D01*
X84215000Y-58700000D01*
X84405000Y-58700000D01*
X84405000Y-58890000D01*
G37*
G36*
X85355000Y-57940000D02*
G01*
X84785000Y-57940000D01*
X84785000Y-58130000D01*
X84785000Y-58320000D01*
X84975000Y-58320000D01*
X84975000Y-58510000D01*
X84975000Y-58700000D01*
X84785000Y-58700000D01*
X84785000Y-58890000D01*
X84595000Y-58890000D01*
X84595000Y-58700000D01*
X84405000Y-58700000D01*
X84405000Y-58510000D01*
X84595000Y-58510000D01*
X84595000Y-58320000D01*
X84595000Y-58130000D01*
X84405000Y-58130000D01*
X84405000Y-57940000D01*
X84595000Y-57940000D01*
X84595000Y-57750000D01*
X85355000Y-57750000D01*
X85355000Y-57940000D01*
G37*
G36*
X85165000Y-58890000D02*
G01*
X84975000Y-58890000D01*
X84975000Y-58700000D01*
X85165000Y-58700000D01*
X85165000Y-58890000D01*
G37*
G36*
X84405000Y-58320000D02*
G01*
X84405000Y-58510000D01*
X84025000Y-58510000D01*
X84025000Y-58320000D01*
X84215000Y-58320000D01*
X84215000Y-58130000D01*
X84405000Y-58130000D01*
X84405000Y-58320000D01*
G37*
G36*
X84025000Y-58320000D02*
G01*
X83835000Y-58320000D01*
X83835000Y-58130000D01*
X84025000Y-58130000D01*
X84025000Y-58320000D01*
G37*
G36*
X85165000Y-58320000D02*
G01*
X84975000Y-58320000D01*
X84975000Y-58130000D01*
X85165000Y-58130000D01*
X85165000Y-58320000D01*
G37*
G36*
X83835000Y-58130000D02*
G01*
X83645000Y-58130000D01*
X83645000Y-57940000D01*
X83835000Y-57940000D01*
X83835000Y-58130000D01*
G37*
G36*
X84215000Y-57940000D02*
G01*
X84025000Y-57940000D01*
X84025000Y-57750000D01*
X84215000Y-57750000D01*
X84215000Y-57940000D01*
G37*
M02*
