%TF.GenerationSoftware,KiCad,Pcbnew,10.0.5*%
%TF.CreationDate,2026-07-27T21:22:42+02:00*%
%TF.ProjectId,ledcube,6c656463-7562-4652-9e6b-696361645f70,rev?*%
%TF.SameCoordinates,Original*%
%TF.FileFunction,Legend,Bot*%
%TF.FilePolarity,Positive*%
%FSLAX46Y46*%
G04 Gerber Fmt 4.6, Leading zero omitted, Abs format (unit mm)*
G04 Created by KiCad (PCBNEW 10.0.5) date 2026-07-27 21:22:42*
%MOMM*%
%LPD*%
G01*
G04 APERTURE LIST*
%ADD10C,0.000000*%
%ADD11C,0.150000*%
%ADD12C,0.120000*%
G04 APERTURE END LIST*
D10*
G36*
X82505000Y-61930000D02*
G01*
X83075000Y-61930000D01*
X83075000Y-62120000D01*
X83265000Y-62120000D01*
X83265000Y-62310000D01*
X82885000Y-62310000D01*
X82885000Y-62120000D01*
X82695000Y-62120000D01*
X82695000Y-62310000D01*
X82315000Y-62310000D01*
X82315000Y-62500000D01*
X82125000Y-62500000D01*
X82125000Y-62310000D01*
X82125000Y-62120000D01*
X82125000Y-61930000D01*
X82125000Y-61740000D01*
X82505000Y-61740000D01*
X82505000Y-61930000D01*
G37*
G36*
X82885000Y-62500000D02*
G01*
X82695000Y-62500000D01*
X82695000Y-62310000D01*
X82885000Y-62310000D01*
X82885000Y-62500000D01*
G37*
G36*
X83455000Y-62500000D02*
G01*
X83265000Y-62500000D01*
X83265000Y-62310000D01*
X83455000Y-62310000D01*
X83455000Y-62500000D01*
G37*
G36*
X83835000Y-62500000D02*
G01*
X83645000Y-62500000D01*
X83645000Y-62310000D01*
X83835000Y-62310000D01*
X83835000Y-62500000D01*
G37*
G36*
X84785000Y-61930000D02*
G01*
X85165000Y-61930000D01*
X85165000Y-62120000D01*
X84785000Y-62120000D01*
X84785000Y-62310000D01*
X84785000Y-62500000D01*
X84405000Y-62500000D01*
X84405000Y-62310000D01*
X84595000Y-62310000D01*
X84595000Y-62120000D01*
X84595000Y-61930000D01*
X84595000Y-61740000D01*
X84785000Y-61740000D01*
X84785000Y-61930000D01*
G37*
G36*
X85355000Y-62310000D02*
G01*
X85355000Y-62500000D01*
X84975000Y-62500000D01*
X84975000Y-62310000D01*
X85165000Y-62310000D01*
X85165000Y-62120000D01*
X85355000Y-62120000D01*
X85355000Y-62310000D01*
G37*
G36*
X86495000Y-62120000D02*
G01*
X85925000Y-62120000D01*
X85925000Y-61550000D01*
X86495000Y-61550000D01*
X86495000Y-62120000D01*
G37*
G36*
X86875000Y-62310000D02*
G01*
X86875000Y-62500000D01*
X85545000Y-62500000D01*
X85545000Y-62310000D01*
X85545000Y-61360000D01*
X85735000Y-61360000D01*
X85735000Y-62310000D01*
X86685000Y-62310000D01*
X86685000Y-61360000D01*
X85735000Y-61360000D01*
X85545000Y-61360000D01*
X85545000Y-61170000D01*
X86875000Y-61170000D01*
X86875000Y-61360000D01*
X86875000Y-62310000D01*
G37*
G36*
X83455000Y-61360000D02*
G01*
X83265000Y-61360000D01*
X83265000Y-61170000D01*
X83455000Y-61170000D01*
X83455000Y-61360000D01*
G37*
G36*
X83835000Y-61360000D02*
G01*
X84405000Y-61360000D01*
X84405000Y-61170000D01*
X84215000Y-61170000D01*
X84215000Y-60980000D01*
X84025000Y-60980000D01*
X84025000Y-60790000D01*
X84025000Y-60600000D01*
X84215000Y-60600000D01*
X84215000Y-60790000D01*
X84595000Y-60790000D01*
X84595000Y-60980000D01*
X84595000Y-61170000D01*
X84785000Y-61170000D01*
X84785000Y-60980000D01*
X84785000Y-60790000D01*
X84975000Y-60790000D01*
X84975000Y-60600000D01*
X85165000Y-60600000D01*
X85165000Y-60790000D01*
X85165000Y-60980000D01*
X85355000Y-60980000D01*
X85355000Y-61170000D01*
X85165000Y-61170000D01*
X85165000Y-61360000D01*
X84975000Y-61360000D01*
X84975000Y-61170000D01*
X84785000Y-61170000D01*
X84785000Y-61360000D01*
X84785000Y-61550000D01*
X84595000Y-61550000D01*
X84595000Y-61360000D01*
X84405000Y-61360000D01*
X84405000Y-61550000D01*
X84215000Y-61550000D01*
X84215000Y-61740000D01*
X84215000Y-61930000D01*
X84025000Y-61930000D01*
X84025000Y-61740000D01*
X83645000Y-61740000D01*
X83645000Y-61930000D01*
X83835000Y-61930000D01*
X83835000Y-62120000D01*
X83645000Y-62120000D01*
X83645000Y-62310000D01*
X83455000Y-62310000D01*
X83455000Y-62120000D01*
X83455000Y-61930000D01*
X83265000Y-61930000D01*
X83265000Y-61740000D01*
X82885000Y-61740000D01*
X82885000Y-61550000D01*
X82885000Y-60980000D01*
X83075000Y-60980000D01*
X83075000Y-61550000D01*
X83645000Y-61550000D01*
X83645000Y-61360000D01*
X83645000Y-60980000D01*
X83075000Y-60980000D01*
X82885000Y-60980000D01*
X82885000Y-60790000D01*
X83075000Y-60790000D01*
X83075000Y-60600000D01*
X83455000Y-60600000D01*
X83455000Y-60410000D01*
X83645000Y-60410000D01*
X83645000Y-60600000D01*
X83835000Y-60600000D01*
X83835000Y-60790000D01*
X83835000Y-60980000D01*
X83835000Y-61360000D01*
G37*
G36*
X85355000Y-61930000D02*
G01*
X85165000Y-61930000D01*
X85165000Y-61550000D01*
X85355000Y-61550000D01*
X85355000Y-61930000D01*
G37*
G36*
X84975000Y-61740000D02*
G01*
X84785000Y-61740000D01*
X84785000Y-61550000D01*
X84975000Y-61550000D01*
X84975000Y-61740000D01*
G37*
G36*
X82315000Y-61360000D02*
G01*
X82125000Y-61360000D01*
X82125000Y-61170000D01*
X82315000Y-61170000D01*
X82315000Y-61360000D01*
G37*
G36*
X82505000Y-60410000D02*
G01*
X82885000Y-60410000D01*
X82885000Y-60220000D01*
X83075000Y-60220000D01*
X83075000Y-60410000D01*
X83075000Y-60600000D01*
X82885000Y-60600000D01*
X82885000Y-60790000D01*
X82695000Y-60790000D01*
X82695000Y-61170000D01*
X82315000Y-61170000D01*
X82315000Y-60790000D01*
X82505000Y-60790000D01*
X82505000Y-60600000D01*
X82315000Y-60600000D01*
X82315000Y-60790000D01*
X82125000Y-60790000D01*
X82125000Y-60600000D01*
X82125000Y-60410000D01*
X82315000Y-60410000D01*
X82315000Y-60220000D01*
X82505000Y-60220000D01*
X82505000Y-60410000D01*
G37*
G36*
X86305000Y-60980000D02*
G01*
X85355000Y-60980000D01*
X85355000Y-60790000D01*
X86305000Y-60790000D01*
X86305000Y-60980000D01*
G37*
G36*
X86875000Y-60410000D02*
G01*
X86875000Y-60600000D01*
X86875000Y-60980000D01*
X86685000Y-60980000D01*
X86685000Y-60600000D01*
X86495000Y-60600000D01*
X86495000Y-60410000D01*
X86685000Y-60410000D01*
X86685000Y-60220000D01*
X86875000Y-60220000D01*
X86875000Y-60410000D01*
G37*
G36*
X84785000Y-60790000D02*
G01*
X84595000Y-60790000D01*
X84595000Y-60600000D01*
X84785000Y-60600000D01*
X84785000Y-60790000D01*
G37*
G36*
X86495000Y-60790000D02*
G01*
X86305000Y-60790000D01*
X86305000Y-60600000D01*
X86495000Y-60600000D01*
X86495000Y-60790000D01*
G37*
G36*
X84025000Y-59650000D02*
G01*
X84025000Y-59840000D01*
X84215000Y-59840000D01*
X84215000Y-60030000D01*
X84215000Y-60220000D01*
X84025000Y-60220000D01*
X84025000Y-60030000D01*
X83835000Y-60030000D01*
X83835000Y-60220000D01*
X84025000Y-60220000D01*
X84025000Y-60410000D01*
X84025000Y-60600000D01*
X83835000Y-60600000D01*
X83835000Y-60410000D01*
X83645000Y-60410000D01*
X83645000Y-60220000D01*
X83645000Y-60030000D01*
X83645000Y-59840000D01*
X83645000Y-59650000D01*
X83835000Y-59650000D01*
X83835000Y-59460000D01*
X84025000Y-59460000D01*
X84025000Y-59650000D01*
G37*
G36*
X84595000Y-60220000D02*
G01*
X84595000Y-60410000D01*
X84405000Y-60410000D01*
X84405000Y-60600000D01*
X84215000Y-60600000D01*
X84215000Y-60410000D01*
X84215000Y-60220000D01*
X84405000Y-60220000D01*
X84405000Y-60030000D01*
X84595000Y-60030000D01*
X84595000Y-60220000D01*
G37*
G36*
X85165000Y-60220000D02*
G01*
X84975000Y-60220000D01*
X84975000Y-60600000D01*
X84785000Y-60600000D01*
X84785000Y-60220000D01*
X84785000Y-60030000D01*
X85165000Y-60030000D01*
X85165000Y-60220000D01*
G37*
G36*
X86305000Y-59460000D02*
G01*
X86305000Y-59650000D01*
X86685000Y-59650000D01*
X86685000Y-59840000D01*
X86685000Y-60220000D01*
X86495000Y-60220000D01*
X86495000Y-59840000D01*
X86305000Y-59840000D01*
X86305000Y-60030000D01*
X86305000Y-60220000D01*
X86115000Y-60220000D01*
X86115000Y-60410000D01*
X85925000Y-60410000D01*
X85925000Y-60600000D01*
X85545000Y-60600000D01*
X85545000Y-60410000D01*
X85735000Y-60410000D01*
X85735000Y-60220000D01*
X85545000Y-60220000D01*
X85545000Y-60410000D01*
X85165000Y-60410000D01*
X85165000Y-60220000D01*
X85355000Y-60220000D01*
X85355000Y-60030000D01*
X85735000Y-60030000D01*
X85735000Y-59840000D01*
X85925000Y-59840000D01*
X85925000Y-60030000D01*
X86115000Y-60030000D01*
X86115000Y-59840000D01*
X85925000Y-59840000D01*
X85925000Y-59650000D01*
X85735000Y-59650000D01*
X85735000Y-59460000D01*
X85925000Y-59460000D01*
X85925000Y-59270000D01*
X86305000Y-59270000D01*
X86305000Y-59460000D01*
G37*
G36*
X86495000Y-60410000D02*
G01*
X86305000Y-60410000D01*
X86305000Y-60220000D01*
X86495000Y-60220000D01*
X86495000Y-60410000D01*
G37*
G36*
X83265000Y-59650000D02*
G01*
X83075000Y-59650000D01*
X83075000Y-59840000D01*
X82885000Y-59840000D01*
X82885000Y-60030000D01*
X82315000Y-60030000D01*
X82315000Y-60220000D01*
X82125000Y-60220000D01*
X82125000Y-60030000D01*
X82125000Y-59840000D01*
X82125000Y-59650000D01*
X82315000Y-59650000D01*
X82315000Y-59840000D01*
X82695000Y-59840000D01*
X82695000Y-59650000D01*
X82315000Y-59650000D01*
X82315000Y-59460000D01*
X83265000Y-59460000D01*
X83265000Y-59650000D01*
G37*
G36*
X83265000Y-60030000D02*
G01*
X83455000Y-60030000D01*
X83455000Y-60220000D01*
X83075000Y-60220000D01*
X83075000Y-60030000D01*
X83075000Y-59840000D01*
X83265000Y-59840000D01*
X83265000Y-60030000D01*
G37*
G36*
X85355000Y-60030000D02*
G01*
X85165000Y-60030000D01*
X85165000Y-59840000D01*
X85355000Y-59840000D01*
X85355000Y-60030000D01*
G37*
G36*
X84595000Y-59840000D02*
G01*
X84405000Y-59840000D01*
X84405000Y-59650000D01*
X84595000Y-59650000D01*
X84595000Y-59840000D01*
G37*
G36*
X85165000Y-59840000D02*
G01*
X84975000Y-59840000D01*
X84975000Y-59650000D01*
X85165000Y-59650000D01*
X85165000Y-59840000D01*
G37*
G36*
X85735000Y-59840000D02*
G01*
X85545000Y-59840000D01*
X85545000Y-59650000D01*
X85735000Y-59650000D01*
X85735000Y-59840000D01*
G37*
G36*
X84975000Y-59650000D02*
G01*
X84785000Y-59650000D01*
X84785000Y-59460000D01*
X84975000Y-59460000D01*
X84975000Y-59650000D01*
G37*
G36*
X85355000Y-59650000D02*
G01*
X85165000Y-59650000D01*
X85165000Y-59460000D01*
X85355000Y-59460000D01*
X85355000Y-59650000D01*
G37*
G36*
X82315000Y-59460000D02*
G01*
X82125000Y-59460000D01*
X82125000Y-59270000D01*
X82315000Y-59270000D01*
X82315000Y-59460000D01*
G37*
G36*
X83455000Y-59460000D02*
G01*
X83265000Y-59460000D01*
X83265000Y-59270000D01*
X83455000Y-59270000D01*
X83455000Y-59460000D01*
G37*
G36*
X83835000Y-59460000D02*
G01*
X83645000Y-59460000D01*
X83645000Y-59270000D01*
X83835000Y-59270000D01*
X83835000Y-59460000D01*
G37*
G36*
X84215000Y-59080000D02*
G01*
X84405000Y-59080000D01*
X84405000Y-58890000D01*
X84595000Y-58890000D01*
X84595000Y-59080000D01*
X84595000Y-59270000D01*
X84595000Y-59460000D01*
X84405000Y-59460000D01*
X84405000Y-59270000D01*
X84025000Y-59270000D01*
X84025000Y-59080000D01*
X84025000Y-58890000D01*
X84215000Y-58890000D01*
X84215000Y-59080000D01*
G37*
G36*
X85355000Y-59080000D02*
G01*
X85355000Y-59270000D01*
X85165000Y-59270000D01*
X85165000Y-59460000D01*
X84975000Y-59460000D01*
X84975000Y-59270000D01*
X84975000Y-59080000D01*
X85165000Y-59080000D01*
X85165000Y-58890000D01*
X85355000Y-58890000D01*
X85355000Y-59080000D01*
G37*
G36*
X85735000Y-59460000D02*
G01*
X85545000Y-59460000D01*
X85545000Y-59270000D01*
X85735000Y-59270000D01*
X85735000Y-59460000D01*
G37*
G36*
X86875000Y-59460000D02*
G01*
X86495000Y-59460000D01*
X86495000Y-59270000D01*
X86875000Y-59270000D01*
X86875000Y-59460000D01*
G37*
G36*
X83075000Y-58700000D02*
G01*
X82505000Y-58700000D01*
X82505000Y-58130000D01*
X83075000Y-58130000D01*
X83075000Y-58700000D01*
G37*
G36*
X83455000Y-58890000D02*
G01*
X83455000Y-59080000D01*
X82125000Y-59080000D01*
X82125000Y-58890000D01*
X82125000Y-57940000D01*
X82315000Y-57940000D01*
X82315000Y-58890000D01*
X83265000Y-58890000D01*
X83265000Y-57940000D01*
X82315000Y-57940000D01*
X82125000Y-57940000D01*
X82125000Y-57750000D01*
X83455000Y-57750000D01*
X83455000Y-57940000D01*
X83455000Y-58890000D01*
G37*
G36*
X83835000Y-59080000D02*
G01*
X83645000Y-59080000D01*
X83645000Y-58510000D01*
X83835000Y-58510000D01*
X83835000Y-59080000D01*
G37*
G36*
X84975000Y-59080000D02*
G01*
X84785000Y-59080000D01*
X84785000Y-58890000D01*
X84975000Y-58890000D01*
X84975000Y-59080000D01*
G37*
G36*
X86495000Y-58700000D02*
G01*
X85925000Y-58700000D01*
X85925000Y-58130000D01*
X86495000Y-58130000D01*
X86495000Y-58700000D01*
G37*
G36*
X86875000Y-58890000D02*
G01*
X86875000Y-59080000D01*
X85545000Y-59080000D01*
X85545000Y-58890000D01*
X85545000Y-57940000D01*
X85735000Y-57940000D01*
X85735000Y-58890000D01*
X86685000Y-58890000D01*
X86685000Y-57940000D01*
X85735000Y-57940000D01*
X85545000Y-57940000D01*
X85545000Y-57750000D01*
X86875000Y-57750000D01*
X86875000Y-57940000D01*
X86875000Y-58890000D01*
G37*
G36*
X84405000Y-58890000D02*
G01*
X84215000Y-58890000D01*
X84215000Y-58700000D01*
X84405000Y-58700000D01*
X84405000Y-58890000D01*
G37*
G36*
X85355000Y-57940000D02*
G01*
X84785000Y-57940000D01*
X84785000Y-58130000D01*
X84785000Y-58320000D01*
X84975000Y-58320000D01*
X84975000Y-58510000D01*
X84975000Y-58700000D01*
X84785000Y-58700000D01*
X84785000Y-58890000D01*
X84595000Y-58890000D01*
X84595000Y-58700000D01*
X84405000Y-58700000D01*
X84405000Y-58510000D01*
X84595000Y-58510000D01*
X84595000Y-58320000D01*
X84595000Y-58130000D01*
X84405000Y-58130000D01*
X84405000Y-57940000D01*
X84595000Y-57940000D01*
X84595000Y-57750000D01*
X85355000Y-57750000D01*
X85355000Y-57940000D01*
G37*
G36*
X85165000Y-58890000D02*
G01*
X84975000Y-58890000D01*
X84975000Y-58700000D01*
X85165000Y-58700000D01*
X85165000Y-58890000D01*
G37*
G36*
X84405000Y-58320000D02*
G01*
X84405000Y-58510000D01*
X84025000Y-58510000D01*
X84025000Y-58320000D01*
X84215000Y-58320000D01*
X84215000Y-58130000D01*
X84405000Y-58130000D01*
X84405000Y-58320000D01*
G37*
G36*
X84025000Y-58320000D02*
G01*
X83835000Y-58320000D01*
X83835000Y-58130000D01*
X84025000Y-58130000D01*
X84025000Y-58320000D01*
G37*
G36*
X85165000Y-58320000D02*
G01*
X84975000Y-58320000D01*
X84975000Y-58130000D01*
X85165000Y-58130000D01*
X85165000Y-58320000D01*
G37*
G36*
X83835000Y-58130000D02*
G01*
X83645000Y-58130000D01*
X83645000Y-57940000D01*
X83835000Y-57940000D01*
X83835000Y-58130000D01*
G37*
G36*
X84215000Y-57940000D02*
G01*
X84025000Y-57940000D01*
X84025000Y-57750000D01*
X84215000Y-57750000D01*
X84215000Y-57940000D01*
G37*
D11*
X91907200Y-92357142D02*
X91954819Y-92499999D01*
X91954819Y-92499999D02*
X91954819Y-92738094D01*
X91954819Y-92738094D02*
X91907200Y-92833332D01*
X91907200Y-92833332D02*
X91859580Y-92880951D01*
X91859580Y-92880951D02*
X91764342Y-92928570D01*
X91764342Y-92928570D02*
X91669104Y-92928570D01*
X91669104Y-92928570D02*
X91573866Y-92880951D01*
X91573866Y-92880951D02*
X91526247Y-92833332D01*
X91526247Y-92833332D02*
X91478628Y-92738094D01*
X91478628Y-92738094D02*
X91431009Y-92547618D01*
X91431009Y-92547618D02*
X91383390Y-92452380D01*
X91383390Y-92452380D02*
X91335771Y-92404761D01*
X91335771Y-92404761D02*
X91240533Y-92357142D01*
X91240533Y-92357142D02*
X91145295Y-92357142D01*
X91145295Y-92357142D02*
X91050057Y-92404761D01*
X91050057Y-92404761D02*
X91002438Y-92452380D01*
X91002438Y-92452380D02*
X90954819Y-92547618D01*
X90954819Y-92547618D02*
X90954819Y-92785713D01*
X90954819Y-92785713D02*
X91002438Y-92928570D01*
X91288152Y-93214285D02*
X91288152Y-93595237D01*
X90954819Y-93357142D02*
X91811961Y-93357142D01*
X91811961Y-93357142D02*
X91907200Y-93404761D01*
X91907200Y-93404761D02*
X91954819Y-93499999D01*
X91954819Y-93499999D02*
X91954819Y-93595237D01*
X91954819Y-94357142D02*
X91431009Y-94357142D01*
X91431009Y-94357142D02*
X91335771Y-94309523D01*
X91335771Y-94309523D02*
X91288152Y-94214285D01*
X91288152Y-94214285D02*
X91288152Y-94023809D01*
X91288152Y-94023809D02*
X91335771Y-93928571D01*
X91907200Y-94357142D02*
X91954819Y-94261904D01*
X91954819Y-94261904D02*
X91954819Y-94023809D01*
X91954819Y-94023809D02*
X91907200Y-93928571D01*
X91907200Y-93928571D02*
X91811961Y-93880952D01*
X91811961Y-93880952D02*
X91716723Y-93880952D01*
X91716723Y-93880952D02*
X91621485Y-93928571D01*
X91621485Y-93928571D02*
X91573866Y-94023809D01*
X91573866Y-94023809D02*
X91573866Y-94261904D01*
X91573866Y-94261904D02*
X91526247Y-94357142D01*
X91288152Y-94690476D02*
X91288152Y-95071428D01*
X90954819Y-94833333D02*
X91811961Y-94833333D01*
X91811961Y-94833333D02*
X91907200Y-94880952D01*
X91907200Y-94880952D02*
X91954819Y-94976190D01*
X91954819Y-94976190D02*
X91954819Y-95071428D01*
X91288152Y-95833333D02*
X91954819Y-95833333D01*
X91288152Y-95404762D02*
X91811961Y-95404762D01*
X91811961Y-95404762D02*
X91907200Y-95452381D01*
X91907200Y-95452381D02*
X91954819Y-95547619D01*
X91954819Y-95547619D02*
X91954819Y-95690476D01*
X91954819Y-95690476D02*
X91907200Y-95785714D01*
X91907200Y-95785714D02*
X91859580Y-95833333D01*
X91907200Y-96261905D02*
X91954819Y-96357143D01*
X91954819Y-96357143D02*
X91954819Y-96547619D01*
X91954819Y-96547619D02*
X91907200Y-96642857D01*
X91907200Y-96642857D02*
X91811961Y-96690476D01*
X91811961Y-96690476D02*
X91764342Y-96690476D01*
X91764342Y-96690476D02*
X91669104Y-96642857D01*
X91669104Y-96642857D02*
X91621485Y-96547619D01*
X91621485Y-96547619D02*
X91621485Y-96404762D01*
X91621485Y-96404762D02*
X91573866Y-96309524D01*
X91573866Y-96309524D02*
X91478628Y-96261905D01*
X91478628Y-96261905D02*
X91431009Y-96261905D01*
X91431009Y-96261905D02*
X91335771Y-96309524D01*
X91335771Y-96309524D02*
X91288152Y-96404762D01*
X91288152Y-96404762D02*
X91288152Y-96547619D01*
X91288152Y-96547619D02*
X91335771Y-96642857D01*
X91954819Y-97642857D02*
X91954819Y-97071429D01*
X91954819Y-97357143D02*
X90954819Y-97357143D01*
X90954819Y-97357143D02*
X91097676Y-97261905D01*
X91097676Y-97261905D02*
X91192914Y-97166667D01*
X91192914Y-97166667D02*
X91240533Y-97071429D01*
%TO.C,R28*%
D12*
X88977500Y-98557742D02*
X88977500Y-99032258D01*
X90022500Y-98557742D02*
X90022500Y-99032258D01*
%TO.C,Status1*%
X88540000Y-96685000D02*
X88540000Y-94000000D01*
X90460000Y-94000000D02*
X90460000Y-96685000D01*
X90460000Y-96685000D02*
X88540000Y-96685000D01*
%TD*%
M02*
