%TF.GenerationSoftware,KiCad,Pcbnew,10.0.5*%
%TF.CreationDate,2026-08-08T18:07:30+02:00*%
%TF.ProjectId,ledcube,6c656463-7562-4652-9e6b-696361645f70,rev?*%
%TF.SameCoordinates,Original*%
%TF.FileFunction,Profile,NP*%
%FSLAX46Y46*%
G04 Gerber Fmt 4.6, Leading zero omitted, Abs format (unit mm)*
G04 Created by KiCad (PCBNEW 10.0.5) date 2026-08-08 18:07:30*
%MOMM*%
%LPD*%
G01*
G04 APERTURE LIST*
%TA.AperFunction,Profile*%
%ADD10C,0.100000*%
%TD*%
G04 APERTURE END LIST*
D10*
X79900000Y-60325000D02*
G75*
G02*
X83900000Y-56325000I4000000J0D01*
G01*
X79900000Y-97325000D02*
X79900000Y-60325000D01*
X81300000Y-63325000D02*
X81300000Y-65525000D01*
X81300000Y-65525000D02*
X89900000Y-65525000D01*
X83900000Y-56325000D02*
X120900000Y-56325000D01*
X83900000Y-101325000D02*
G75*
G02*
X79900000Y-97325000I0J4000000D01*
G01*
X87900000Y-57575000D02*
X87900000Y-63325000D01*
X87900000Y-63325000D02*
X81300000Y-63325000D01*
X89900000Y-57575000D02*
X87900000Y-57575000D01*
X89900000Y-65525000D02*
X89900000Y-57575000D01*
X114700000Y-57525000D02*
X116900000Y-57525000D01*
X114700000Y-68425000D02*
X114700000Y-57525000D01*
X116900000Y-57525000D02*
X116900000Y-66325000D01*
X116900000Y-66325000D02*
X122900000Y-66325000D01*
X120900000Y-56325000D02*
G75*
G02*
X124900000Y-60325000I0J-4000000D01*
G01*
X120900000Y-101325000D02*
X83900000Y-101325000D01*
X122900000Y-66325000D02*
X122900000Y-68425000D01*
X122900000Y-68425000D02*
X114700000Y-68425000D01*
X124900000Y-60325000D02*
X124900000Y-97325000D01*
X124900000Y-97325000D02*
G75*
G02*
X120900000Y-101325000I-4000000J0D01*
G01*
M02*
