%TF.GenerationSoftware,KiCad,Pcbnew,10.0.5*%
%TF.CreationDate,2026-09-04T20:15:20+02:00*%
%TF.ProjectId,ledcube,6c656463-7562-4652-9e6b-696361645f70,rev?*%
%TF.SameCoordinates,Original*%
%TF.FileFunction,Paste,Top*%
%TF.FilePolarity,Positive*%
%FSLAX46Y46*%
G04 Gerber Fmt 4.6, Leading zero omitted, Abs format (unit mm)*
G04 Created by KiCad (PCBNEW 10.0.5) date 2026-09-04 20:15:20*
%MOMM*%
%LPD*%
G01*
G04 APERTURE LIST*
G04 Aperture macros list*
%AMRoundRect*
0 Rectangle with rounded corners*
0 $1 Rounding radius*
0 $2 $3 $4 $5 $6 $7 $8 $9 X,Y pos of 4 corners*
0 Add a 4 corners polygon primitive as box body*
4,1,4,$2,$3,$4,$5,$6,$7,$8,$9,$2,$3,0*
0 Add four circle primitives for the rounded corners*
1,1,$1+$1,$2,$3*
1,1,$1+$1,$4,$5*
1,1,$1+$1,$6,$7*
1,1,$1+$1,$8,$9*
0 Add four rect primitives between the rounded corners*
20,1,$1+$1,$2,$3,$4,$5,0*
20,1,$1+$1,$4,$5,$6,$7,0*
20,1,$1+$1,$6,$7,$8,$9,0*
20,1,$1+$1,$8,$9,$2,$3,0*%
G04 Aperture macros list end*
%ADD10RoundRect,0.175000X-0.175000X-0.625000X0.175000X-0.625000X0.175000X0.625000X-0.175000X0.625000X0*%
%ADD11RoundRect,0.200000X-0.200000X-0.600000X0.200000X-0.600000X0.200000X0.600000X-0.200000X0.600000X0*%
%ADD12RoundRect,0.225000X-0.225000X-0.575000X0.225000X-0.575000X0.225000X0.575000X-0.225000X0.575000X0*%
%ADD13RoundRect,0.200000X0.200000X0.275000X-0.200000X0.275000X-0.200000X-0.275000X0.200000X-0.275000X0*%
%ADD14RoundRect,0.250000X0.400000X-0.400000X0.400000X0.400000X-0.400000X0.400000X-0.400000X-0.400000X0*%
%ADD15RoundRect,0.250000X0.400000X-0.750000X0.400000X0.750000X-0.400000X0.750000X-0.400000X-0.750000X0*%
%ADD16RoundRect,0.250000X-0.400000X-0.400000X0.400000X-0.400000X0.400000X0.400000X-0.400000X0.400000X0*%
%ADD17RoundRect,0.250000X-0.750000X-0.400000X0.750000X-0.400000X0.750000X0.400000X-0.750000X0.400000X0*%
%ADD18RoundRect,0.150000X-0.150000X0.587500X-0.150000X-0.587500X0.150000X-0.587500X0.150000X0.587500X0*%
%ADD19RoundRect,0.200000X0.275000X-0.200000X0.275000X0.200000X-0.275000X0.200000X-0.275000X-0.200000X0*%
%ADD20RoundRect,0.350000X-0.650000X-0.350000X0.650000X-0.350000X0.650000X0.350000X-0.650000X0.350000X0*%
%ADD21RoundRect,0.250000X-0.750000X-0.250000X0.750000X-0.250000X0.750000X0.250000X-0.750000X0.250000X0*%
G04 APERTURE END LIST*
D10*
%TO.C,P1*%
X104746000Y-96320000D03*
D11*
X106766000Y-96320000D03*
D12*
X107996000Y-96320000D03*
D10*
X105746000Y-96320000D03*
D11*
X103726000Y-96320000D03*
D12*
X102496000Y-96320000D03*
%TD*%
D13*
%TO.C,R21*%
X107675000Y-67490000D03*
X109325000Y-67490000D03*
%TD*%
%TO.C,R19*%
X107675000Y-72510000D03*
X109325000Y-72510000D03*
%TD*%
%TO.C,R20*%
X107675000Y-70000000D03*
X109325000Y-70000000D03*
%TD*%
D14*
%TO.C,Green1*%
X111250000Y-62650000D03*
D15*
X116750000Y-61500000D03*
D14*
X111250000Y-60350000D03*
%TD*%
D16*
%TO.C,Blue1*%
X116000000Y-93000000D03*
D17*
X117150000Y-98500000D03*
D16*
X118300000Y-93000000D03*
%TD*%
D14*
%TO.C,Red1*%
X84250000Y-62150000D03*
D15*
X89750000Y-61000000D03*
D14*
X84250000Y-59850000D03*
%TD*%
D18*
%TO.C,Q1*%
X96450000Y-94437500D03*
X95500000Y-92562500D03*
X97400000Y-92562500D03*
%TD*%
%TO.C,Q2*%
X92000000Y-94437500D03*
X91050000Y-92562500D03*
X92950000Y-92562500D03*
%TD*%
%TO.C,Q3*%
X87550000Y-94437500D03*
X86600000Y-92562500D03*
X88500000Y-92562500D03*
%TD*%
D19*
%TO.C,R30*%
X89500000Y-99325000D03*
X89500000Y-97675000D03*
%TD*%
%TO.C,R28*%
X95500000Y-99325000D03*
X95500000Y-97675000D03*
%TD*%
D13*
%TO.C,R25*%
X109325000Y-88010000D03*
X107675000Y-88010000D03*
%TD*%
%TO.C,R22*%
X109500000Y-80510000D03*
X107850000Y-80510000D03*
%TD*%
%TO.C,R23*%
X109500000Y-78000000D03*
X107850000Y-78000000D03*
%TD*%
D19*
%TO.C,R29*%
X92500000Y-99325000D03*
X92500000Y-97675000D03*
%TD*%
D13*
%TO.C,R26*%
X109325000Y-85500000D03*
X107675000Y-85500000D03*
%TD*%
%TO.C,R24*%
X109500000Y-75490000D03*
X107850000Y-75490000D03*
%TD*%
%TO.C,R27*%
X109325000Y-82990000D03*
X107675000Y-82990000D03*
%TD*%
%TO.C,R18*%
X98325000Y-82990000D03*
X96675000Y-82990000D03*
%TD*%
%TO.C,R16*%
X98325000Y-88010000D03*
X96675000Y-88010000D03*
%TD*%
%TO.C,R15*%
X98500000Y-75490000D03*
X96850000Y-75490000D03*
%TD*%
%TO.C,R17*%
X98325000Y-85500000D03*
X96675000Y-85500000D03*
%TD*%
%TO.C,R14*%
X98500000Y-78000000D03*
X96850000Y-78000000D03*
%TD*%
%TO.C,R10*%
X98325000Y-72510000D03*
X96675000Y-72510000D03*
%TD*%
%TO.C,R8*%
X85825000Y-86000000D03*
X84175000Y-86000000D03*
%TD*%
%TO.C,R2*%
X85825000Y-70420000D03*
X84175000Y-70420000D03*
%TD*%
%TO.C,R3*%
X85825000Y-67910000D03*
X84175000Y-67910000D03*
%TD*%
%TO.C,R7*%
X85825000Y-88510000D03*
X84175000Y-88510000D03*
%TD*%
%TO.C,R5*%
X85825000Y-78500000D03*
X84175000Y-78500000D03*
%TD*%
%TO.C,R9*%
X85825000Y-83490000D03*
X84175000Y-83490000D03*
%TD*%
%TO.C,R11*%
X98325000Y-70000000D03*
X96675000Y-70000000D03*
%TD*%
%TO.C,R13*%
X98500000Y-80510000D03*
X96850000Y-80510000D03*
%TD*%
%TO.C,R12*%
X98325000Y-67490000D03*
X96675000Y-67490000D03*
%TD*%
%TO.C,R6*%
X85825000Y-75990000D03*
X84175000Y-75990000D03*
%TD*%
%TO.C,R4*%
X85825000Y-81010000D03*
X84175000Y-81010000D03*
%TD*%
%TO.C,R1*%
X85825000Y-73000000D03*
X84175000Y-73000000D03*
%TD*%
D20*
%TO.C,D9*%
X116200000Y-83700000D03*
D21*
X116200000Y-85500000D03*
D20*
X116200000Y-87300000D03*
X111800000Y-87300000D03*
D21*
X111800000Y-85500000D03*
D20*
X111800000Y-83700000D03*
%TD*%
%TO.C,D7*%
X116200000Y-68200000D03*
D21*
X116200000Y-70000000D03*
D20*
X116200000Y-71800000D03*
X111800000Y-71800000D03*
D21*
X111800000Y-70000000D03*
D20*
X111800000Y-68200000D03*
%TD*%
%TO.C,D6*%
X100800000Y-83700000D03*
D21*
X100800000Y-85500000D03*
D20*
X100800000Y-87300000D03*
X105200000Y-87300000D03*
D21*
X105200000Y-85500000D03*
D20*
X105200000Y-83700000D03*
%TD*%
%TO.C,D8*%
X116200000Y-76400000D03*
D21*
X116200000Y-78200000D03*
D20*
X116200000Y-80000000D03*
X111800000Y-80000000D03*
D21*
X111800000Y-78200000D03*
D20*
X111800000Y-76400000D03*
%TD*%
%TO.C,D4*%
X100800000Y-68200000D03*
D21*
X100800000Y-70000000D03*
D20*
X100800000Y-71800000D03*
X105200000Y-71800000D03*
D21*
X105200000Y-70000000D03*
D20*
X105200000Y-68200000D03*
%TD*%
%TO.C,D3*%
X89300000Y-84000000D03*
D21*
X89300000Y-85800000D03*
D20*
X89300000Y-87600000D03*
X93700000Y-87600000D03*
D21*
X93700000Y-85800000D03*
D20*
X93700000Y-84000000D03*
%TD*%
%TO.C,D5*%
X100800000Y-76400000D03*
D21*
X100800000Y-78200000D03*
D20*
X100800000Y-80000000D03*
X105200000Y-80000000D03*
D21*
X105200000Y-78200000D03*
D20*
X105200000Y-76400000D03*
%TD*%
%TO.C,D2*%
X89300000Y-76700000D03*
D21*
X89300000Y-78500000D03*
D20*
X89300000Y-80300000D03*
X93700000Y-80300000D03*
D21*
X93700000Y-78500000D03*
D20*
X93700000Y-76700000D03*
%TD*%
%TO.C,D1*%
X89300000Y-68500000D03*
D21*
X89300000Y-70300000D03*
D20*
X89300000Y-72100000D03*
X93700000Y-72100000D03*
D21*
X93700000Y-70300000D03*
D20*
X93700000Y-68500000D03*
%TD*%
M02*
